<svg height="24" viewBox="0 0 24 24" width="24" xmlns="http://www.w3.org/2000/svg"><path d="m18.94 14.38a9.78 9.78 0 0 1 -.94 1.68 8 8 0 0 1 -1.21 1.45 2.27 2.27 0 0 1 -1.54.69 3.94 3.94 0 0 1 -1.43-.34 4.06 4.06 0 0 0 -1.54-.34 4.31 4.31 0 0 0 -1.58.34 4.15 4.15 0 0 1 -1.37.36 2.21 2.21 0 0 1 -1.59-.7 8.48 8.48 0 0 1 -1.24-1.52 10.14 10.14 0 0 1 -1.33-2.65 10 10 0 0 1 -.57-3.15 5.91 5.91 0 0 1 .77-3 4.51 4.51 0 0 1 1.63-1.64 4.28 4.28 0 0 1 2.11-.56 5 5 0 0 1 1.66.38 5 5 0 0 0 1.32.39 8.22 8.22 0 0 0 1.46-.45 4.85 4.85 0 0 1 2-.36 4.17 4.17 0 0 1 3.25 1.76 3.84 3.84 0 0 0 -.8 6.06 4.08 4.08 0 0 0 1.21.77 8.21 8.21 0 0 1 -.31.77zm-3.36-13.23a3.79 3.79 0 0 1 -1 2.44 3.27 3.27 0 0 1 -2.69 1.33 1.82 1.82 0 0 1 0-.33 3.89 3.89 0 0 1 1-2.47 4 4 0 0 1 1.24-.92 3.77 3.77 0 0 1 1.43-.4 2 2 0 0 1 0 .35zm-11.77 19.61a1.46 1.46 0 0 1 -1.47 1.66 1.46 1.46 0 0 1 -1.48-1.66 1.47 1.47 0 0 1 1.48-1.66 1.46 1.46 0 0 1 1.47 1.66zm-2.45 0c0 .73.37 1.2 1 1.2s1-.47 1-1.2-.37-1.2-1-1.2-1 .44-1 1.2zm3.24 1.24v.38h-.49v-3.38h.47v1.31a.8.8 0 0 1 .73-.42c.61 0 1 .48 1 1.24s-.38 1.23-1 1.23a.82.82 0 0 1 -.71-.36zm0-.82c0 .5.25.81.65.81s.64-.3.64-.81-.24-.81-.64-.81-.68.28-.68.78zm2.48 1.29c0 .49-.25.72-.77.72h-.14v-.39h.07c.25 0 .34-.1.34-.33v-2.47h.47zm-.54-3.19a.31.31 0 0 1 .61 0 .28.28 0 0 1 -.3.28.29.29 0 0 1 -.34-.31zm2.89 2.42a1 1 0 0 1 -1 .69 1.08 1.08 0 0 1 -1.1-1.23 1.1 1.1 0 0 1 1.1-1.25c.67 0 1.07.45 1.07 1.2v.17h-1.73a.64.64 0 0 0 .64.69.58.58 0 0 0 .59-.27zm-1.66-.77h1.23a.58.58 0 0 0 -.59-.62.61.61 0 0 0 -.64.62zm3.49-.19a.54.54 0 0 0 -.57-.41c-.39 0-.64.3-.64.81s.25.83.64.83a.53.53 0 0 0 .57-.39h.46a1 1 0 0 1 -1 .81 1.1 1.1 0 0 1 -1.12-1.25 1.09 1.09 0 0 1 1.12-1.23 1 1 0 0 1 1 .83zm1.33-1.38v.64h.52v.4h-.52v1.23c0 .25.1.36.34.36h.18v.39a1.09 1.09 0 0 1 -.26 0c-.52 0-.73-.19-.73-.65v-1.37h-.38v-.36h.38v-.6zm.68-.11a.31.31 0 1 1 .3.28.29.29 0 0 1 -.3-.28zm.07.7h.47v2.4h-.47zm2 2.4h-.51l-.83-2.35h.5l.6 1.89.6-1.89h.5zm2.93-.65a1 1 0 0 1 -1 .69 1.08 1.08 0 0 1 -1.1-1.23 1.1 1.1 0 0 1 1.1-1.25c.67 0 1.07.45 1.07 1.2v.17h-1.74a.64.64 0 0 0 .64.69.58.58 0 0 0 .57-.29zm-1.66-.77h1.21a.58.58 0 0 0 -.59-.62.61.61 0 0 0 -.63.62zm1.93.37v-.46h1.46v.46zm1.72-.54c0-1 .55-1.66 1.43-1.66a1.27 1.27 0 0 1 1.31 1.1h-.49a.83.83 0 0 0 -.83-.64c-.57 0-.93.46-.93 1.2s.36 1.2.93 1.2a.8.8 0 0 0 .83-.58h.49a1.24 1.24 0 0 1 -1.32 1c-.88.04-1.43-.59-1.43-1.62z" fill="#080736"/></svg>