<svg viewBox="0 0 512 512" xmlns="http://www.w3.org/2000/svg"><text x="729.64" y="231.36"><tspan x="729.64" y="231.36"/></text><text transform="scale(4.0128 .2492)" x="378.91" y="579.26"/><text x="1310.91" y="151.36"><tspan x="1310.91" y="151.36"/></text><text transform="scale(4.0128 .2492)" x="523.76" y="258.22"/><text x="239.33" y="-29.9"><tspan x="239.33" y="-29.9"/></text><text transform="scale(4.0128 .2492)" x="256.72" y="-469.13"/><text x="1337.38" y="-246.37"><tspan x="1337.38" y="-246.37"/></text><text transform="scale(4.0128 .2492)" x="530.36" y="-1337.8"/><text x="1918.65" y="-326.37"><tspan x="1918.65" y="-326.37"/></text><text transform="scale(4.0128 .2492)" x="675.21" y="-1658.83"/><text x="1529.53" y="-798.77"><tspan x="1529.53" y="-798.77"/></text><text transform="scale(4.0128 .2492)" x="578.24" y="-3554.48"/><text x="2110.79" y="-878.78"><tspan x="2110.79" y="-878.78"/></text><text transform="scale(4.0128 .2492)" x="723.09" y="-3875.52"/><text x="277.99" y="535.94"><tspan x="277.99" y="535.94"/></text><text x="729.64" y="231.36"><tspan x="729.64" y="231.36"/></text><text transform="scale(4.0128 .2492)" x="378.91" y="579.26"/><text x="1310.91" y="151.36"><tspan x="1310.91" y="151.36"/></text><text transform="scale(4.0128 .2492)" x="523.76" y="258.22"/><text x="239.33" y="-29.9"><tspan x="239.33" y="-29.9"/></text><text transform="scale(4.0128 .2492)" x="256.72" y="-469.13"/><text x="1337.38" y="-246.37"><tspan x="1337.38" y="-246.37"/></text><text transform="scale(4.0128 .2492)" x="530.36" y="-1337.8"/><text x="1918.65" y="-326.37"><tspan x="1918.65" y="-326.37"/></text><text transform="scale(4.0128 .2492)" x="675.21" y="-1658.83"/><text x="1529.53" y="-798.77"><tspan x="1529.53" y="-798.77"/></text><text transform="scale(4.0128 .2492)" x="578.24" y="-3554.48"/><text x="2110.79" y="-878.78"><tspan x="2110.79" y="-878.78"/></text><text transform="scale(4.0128 .2492)" x="723.09" y="-3875.52"/><text x="277.99" y="535.94"><tspan x="277.99" y="535.94"/></text><text x="729.64" y="231.36"><tspan x="729.64" y="231.36"/></text><text transform="scale(4.0128 .2492)" x="378.91" y="579.26"/><text x="1310.91" y="151.36"><tspan x="1310.91" y="151.36"/></text><text transform="scale(4.0128 .2492)" x="523.76" y="258.22"/><text x="239.33" y="-29.9"><tspan x="239.33" y="-29.9"/></text><text transform="scale(4.0128 .2492)" x="256.72" y="-469.13"/><text x="1337.38" y="-246.37"><tspan x="1337.38" y="-246.37"/></text><text transform="scale(4.0128 .2492)" x="530.36" y="-1337.79"/><text x="1918.65" y="-326.37"><tspan x="1918.65" y="-326.37"/></text><text transform="scale(4.0128 .2492)" x="675.21" y="-1658.82"/><text x="1529.53" y="-798.77"><tspan x="1529.53" y="-798.77"/></text><text transform="scale(4.0128 .2492)" x="578.24" y="-3554.46"/><text x="2110.79" y="-878.78"><tspan x="2110.79" y="-878.78"/></text><text transform="scale(4.0128 .2492)" x="723.09" y="-3875.5"/><text x="277.99" y="535.94"><tspan x="277.99" y="535.94"/></text><text x="729.64" y="231.36"><tspan x="729.64" y="231.36"/></text><text transform="scale(4.0128 .2492)" x="378.91" y="579.26"/><text x="1310.91" y="151.36"><tspan x="1310.91" y="151.36"/></text><text transform="scale(4.0128 .2492)" x="523.76" y="258.22"/><text x="239.33" y="-29.9"><tspan x="239.33" y="-29.9"/></text><text transform="scale(4.0128 .2492)" x="256.72" y="-469.13"/><text x="1337.38" y="-246.37"><tspan x="1337.38" y="-246.37"/></text><text transform="scale(4.0128 .2492)" x="530.36" y="-1337.8"/><text x="1918.65" y="-326.37"><tspan x="1918.65" y="-326.37"/></text><text transform="scale(4.0128 .2492)" x="675.21" y="-1658.83"/><text x="1529.53" y="-798.77"><tspan x="1529.53" y="-798.77"/></text><text transform="scale(4.0128 .2492)" x="578.24" y="-3554.48"/><text x="2110.79" y="-878.78"><tspan x="2110.79" y="-878.78"/></text><text transform="scale(4.0128 .2492)" x="723.09" y="-3875.52"/><text x="277.99" y="535.94"><tspan x="277.99" y="535.94"/></text><text x="729.64" y="231.36"><tspan x="729.64" y="231.36"/></text><text transform="scale(4.0128 .2492)" x="378.91" y="579.26"/><text x="1310.91" y="151.36"><tspan x="1310.91" y="151.36"/></text><text transform="scale(4.0128 .2492)" x="523.76" y="258.22"/><text x="239.33" y="-29.9"><tspan x="239.33" y="-29.9"/></text><text transform="scale(4.0128 .2492)" x="256.72" y="-469.13"/><text x="1337.38" y="-246.37"><tspan x="1337.38" y="-246.37"/></text><text transform="scale(4.0128 .2492)" x="530.36" y="-1337.8"/><text x="1918.65" y="-326.37"><tspan x="1918.65" y="-326.37"/></text><text transform="scale(4.0128 .2492)" x="675.21" y="-1658.83"/><text x="1529.53" y="-798.77"><tspan x="1529.53" y="-798.77"/></text><text transform="scale(4.0128 .2492)" x="578.24" y="-3554.48"/><text x="2110.79" y="-878.78"><tspan x="2110.79" y="-878.78"/></text><text transform="scale(4.0128 .2492)" x="723.09" y="-3875.52"/><text x="277.99" y="535.94"><tspan x="277.99" y="535.94"/></text><text x="729.64" y="231.36"><tspan x="729.64" y="231.36"/></text><text transform="scale(4.0128 .2492)" x="378.91" y="579.26"/><text x="1310.91" y="151.36"><tspan x="1310.91" y="151.36"/></text><text transform="scale(4.0128 .2492)" x="523.76" y="258.22"/><text x="239.33" y="-29.9"><tspan x="239.33" y="-29.9"/></text><text transform="scale(4.0128 .2492)" x="256.72" y="-469.13"/><text x="1337.38" y="-246.37"><tspan x="1337.38" y="-246.37"/></text><text transform="scale(4.0128 .2492)" x="530.36" y="-1337.8"/><text x="1918.65" y="-326.37"><tspan x="1918.65" y="-326.37"/></text><text transform="scale(4.0128 .2492)" x="675.21" y="-1658.83"/><text x="1529.53" y="-798.77"><tspan x="1529.53" y="-798.77"/></text><text transform="scale(4.0128 .2492)" x="578.24" y="-3554.48"/><text x="2110.79" y="-878.78"><tspan x="2110.79" y="-878.78"/></text><text transform="scale(4.0128 .2492)" x="723.09" y="-3875.52"/><text x="277.99" y="535.94"><tspan x="277.99" y="535.94"/></text><text x="729.64" y="231.36"><tspan x="729.64" y="231.36"/></text><text transform="scale(4.0128 .2492)" x="378.91" y="579.26"/><text x="1310.91" y="151.36"><tspan x="1310.91" y="151.36"/></text><text transform="scale(4.0128 .2492)" x="523.76" y="258.22"/><text x="239.33" y="-29.9"><tspan x="239.33" y="-29.9"/></text><text transform="scale(4.0128 .2492)" x="256.72" y="-469.13"/><text x="1337.38" y="-246.37"><tspan x="1337.38" y="-246.37"/></text><text transform="scale(4.0128 .2492)" x="530.36" y="-1337.8"/><text x="1918.65" y="-326.37"><tspan x="1918.65" y="-326.37"/></text><text transform="scale(4.0128 .2492)" x="675.21" y="-1658.83"/><text x="1529.53" y="-798.77"><tspan x="1529.53" y="-798.77"/></text><text transform="scale(4.0128 .2492)" x="578.24" y="-3554.48"/><text x="2110.79" y="-878.78"><tspan x="2110.79" y="-878.78"/></text><text transform="scale(4.0128 .2492)" x="723.09" y="-3875.52"/><text x="277.99" y="535.94"><tspan x="277.99" y="535.94"/></text><text x="729.64" y="231.36"><tspan x="729.64" y="231.36"/></text><text transform="scale(4.0128 .2492)" x="378.91" y="579.26"/><text x="1310.91" y="151.36"><tspan x="1310.91" y="151.36"/></text><text transform="scale(4.0128 .2492)" x="523.76" y="258.22"/><text x="239.33" y="-29.9"><tspan x="239.33" y="-29.9"/></text><text transform="scale(4.0128 .2492)" x="256.72" y="-469.13"/><text x="1337.38" y="-246.37"><tspan x="1337.38" y="-246.37"/></text><text transform="scale(4.0128 .2492)" x="530.36" y="-1337.8"/><text x="1918.65" y="-326.37"><tspan x="1918.65" y="-326.37"/></text><text transform="scale(4.0128 .2492)" x="675.21" y="-1658.83"/><text x="1529.53" y="-798.77"><tspan x="1529.53" y="-798.77"/></text><text transform="scale(4.0128 .2492)" x="578.24" y="-3554.48"/><text x="2110.79" y="-878.78"><tspan x="2110.79" y="-878.78"/></text><text transform="scale(4.0128 .2492)" x="723.09" y="-3875.52"/><text x="277.99" y="535.94"><tspan x="277.99" y="535.94"/></text><text x="729.64" y="231.36"><tspan x="729.64" y="231.36"/></text><text transform="scale(4.0128 .2492)" x="378.91" y="579.26"/><text x="1310.91" y="151.36"><tspan x="1310.91" y="151.36"/></text><text transform="scale(4.0128 .2492)" x="523.76" y="258.22"/><text x="239.33" y="-29.9"><tspan x="239.33" y="-29.9"/></text><text transform="scale(4.0128 .2492)" x="256.72" y="-469.13"/><text x="1337.38" y="-246.37"><tspan x="1337.38" y="-246.37"/></text><text transform="scale(4.0128 .2492)" x="530.36" y="-1337.8"/><text x="1918.65" y="-326.37"><tspan x="1918.65" y="-326.37"/></text><text transform="scale(4.0128 .2492)" x="675.21" y="-1658.83"/><text x="1529.53" y="-798.77"><tspan x="1529.53" y="-798.77"/></text><text transform="scale(4.0128 .2492)" x="578.24" y="-3554.48"/><text x="2110.79" y="-878.78"><tspan x="2110.79" y="-878.78"/></text><text transform="scale(4.0128 .2492)" x="723.09" y="-3875.52"/><text x="277.99" y="535.94"><tspan x="277.99" y="535.94"/></text><text x="729.64" y="231.36"><tspan x="729.64" y="231.36"/></text><text transform="scale(4.0128 .2492)" x="378.91" y="579.26"/><text x="1310.91" y="151.36"><tspan x="1310.91" y="151.36"/></text><text transform="scale(4.0128 .2492)" x="523.76" y="258.22"/><text x="239.33" y="-29.9"><tspan x="239.33" y="-29.9"/></text><text transform="scale(4.0128 .2492)" x="256.72" y="-469.13"/><text x="1337.38" y="-246.37"><tspan x="1337.38" y="-246.37"/></text><text transform="scale(4.0128 .2492)" x="530.36" y="-1337.8"/><text x="1918.65" y="-326.37"><tspan x="1918.65" y="-326.37"/></text><text transform="scale(4.0128 .2492)" x="675.21" y="-1658.83"/><text x="1529.53" y="-798.77"><tspan x="1529.53" y="-798.77"/></text><text transform="scale(4.0128 .2492)" x="578.24" y="-3554.48"/><text x="2110.79" y="-878.78"><tspan x="2110.79" y="-878.78"/></text><text transform="scale(4.0128 .2492)" x="723.09" y="-3875.52"/><text x="277.99" y="535.94"><tspan x="277.99" y="535.94"/></text><text x="729.64" y="231.36"><tspan x="729.64" y="231.36"/></text><text transform="scale(4.0128 .2492)" x="378.91" y="579.26"/><text x="1310.91" y="151.36"><tspan x="1310.91" y="151.36"/></text><text transform="scale(4.0128 .2492)" x="523.76" y="258.22"/><text x="239.33" y="-29.9"><tspan x="239.33" y="-29.9"/></text><text transform="scale(4.0128 .2492)" x="256.72" y="-469.13"/><text x="1337.38" y="-246.37"><tspan x="1337.38" y="-246.37"/></text><text transform="scale(4.0128 .2492)" x="530.36" y="-1337.8"/><text x="1918.65" y="-326.37"><tspan x="1918.65" y="-326.37"/></text><text transform="scale(4.0128 .2492)" x="675.21" y="-1658.83"/><text x="1529.53" y="-798.77"><tspan x="1529.53" y="-798.77"/></text><text transform="scale(4.0128 .2492)" x="578.24" y="-3554.48"/><text x="2110.79" y="-878.78"><tspan x="2110.79" y="-878.78"/></text><text transform="scale(4.0128 .2492)" x="723.09" y="-3875.52"/><text x="277.99" y="535.94"><tspan x="277.99" y="535.94"/></text><text x="729.64" y="231.36"><tspan x="729.64" y="231.36"/></text><text transform="scale(4.0128 .2492)" x="378.91" y="579.26"/><text x="1310.91" y="151.36"><tspan x="1310.91" y="151.36"/></text><text transform="scale(4.0128 .2492)" x="523.76" y="258.22"/><text x="239.33" y="-29.9"><tspan x="239.33" y="-29.9"/></text><text transform="scale(4.0128 .2492)" x="256.72" y="-469.13"/><text x="1337.38" y="-246.37"><tspan x="1337.38" y="-246.37"/></text><text transform="scale(4.0128 .2492)" x="530.36" y="-1337.8"/><text x="1918.65" y="-326.37"><tspan x="1918.65" y="-326.37"/></text><text transform="scale(4.0128 .2492)" x="675.21" y="-1658.83"/><text x="1529.53" y="-798.77"><tspan x="1529.53" y="-798.77"/></text><text transform="scale(4.0128 .2492)" x="578.24" y="-3554.48"/><text x="2110.79" y="-878.78"><tspan x="2110.79" y="-878.78"/></text><text transform="scale(4.0128 .2492)" x="723.09" y="-3875.52"/><text x="277.99" y="535.94"><tspan x="277.99" y="535.94"/></text><text x="729.64" y="231.36"><tspan x="729.64" y="231.36"/></text><text transform="scale(4.0128 .2492)" x="378.91" y="579.26"/><text x="1310.91" y="151.36"><tspan x="1310.91" y="151.36"/></text><text transform="scale(4.0128 .2492)" x="523.76" y="258.22"/><text x="239.33" y="-29.9"><tspan x="239.33" y="-29.9"/></text><text transform="scale(4.0128 .2492)" x="256.72" y="-469.13"/><text x="1337.38" y="-246.37"><tspan x="1337.38" y="-246.37"/></text><text transform="scale(4.0128 .2492)" x="530.36" y="-1337.8"/><text x="1918.65" y="-326.37"><tspan x="1918.65" y="-326.37"/></text><text transform="scale(4.0128 .2492)" x="675.21" y="-1658.83"/><text x="1529.53" y="-798.77"><tspan x="1529.53" y="-798.77"/></text><text transform="scale(4.0128 .2492)" x="578.24" y="-3554.48"/><text x="2110.79" y="-878.78"><tspan x="2110.79" y="-878.78"/></text><text transform="scale(4.0128 .2492)" x="723.09" y="-3875.52"/><text x="277.99" y="535.94"><tspan x="277.99" y="535.94"/></text><text x="729.64" y="231.36"><tspan x="729.64" y="231.36"/></text><text transform="scale(4.0128 .2492)" x="378.91" y="579.26"/><text x="1310.91" y="151.36"><tspan x="1310.91" y="151.36"/></text><text transform="scale(4.0128 .2492)" x="523.76" y="258.22"/><text x="239.33" y="-29.9"><tspan x="239.33" y="-29.9"/></text><text transform="scale(4.0128 .2492)" x="256.72" y="-469.13"/><text x="1337.38" y="-246.37"><tspan x="1337.38" y="-246.37"/></text><text transform="scale(4.0128 .2492)" x="530.36" y="-1337.8"/><text x="1918.65" y="-326.37"><tspan x="1918.65" y="-326.37"/></text><text transform="scale(4.0128 .2492)" x="675.21" y="-1658.83"/><text x="1529.53" y="-798.77"><tspan x="1529.53" y="-798.77"/></text><text transform="scale(4.0128 .2492)" x="578.24" y="-3554.48"/><text x="2110.79" y="-878.78"><tspan x="2110.79" y="-878.78"/></text><text transform="scale(4.0128 .2492)" x="723.09" y="-3875.52"/><text x="277.99" y="535.94"><tspan x="277.99" y="535.94"/></text><text x="729.64" y="231.36"><tspan x="729.64" y="231.36"/></text><text transform="scale(4.0128 .2492)" x="378.91" y="579.26"/><text x="1310.91" y="151.36"><tspan x="1310.91" y="151.36"/></text><text transform="scale(4.0128 .2492)" x="523.76" y="258.22"/><text x="239.33" y="-29.9"><tspan x="239.33" y="-29.9"/></text><text transform="scale(4.0128 .2492)" x="256.72" y="-469.13"/><text x="1337.38" y="-246.37"><tspan x="1337.38" y="-246.37"/></text><text transform="scale(4.0128 .2492)" x="530.36" y="-1337.8"/><text x="1918.65" y="-326.37"><tspan x="1918.65" y="-326.37"/></text><text transform="scale(4.0128 .2492)" x="675.21" y="-1658.83"/><text x="1529.53" y="-798.77"><tspan x="1529.53" y="-798.77"/></text><text transform="scale(4.0128 .2492)" x="578.24" y="-3554.48"/><text x="2110.79" y="-878.78"><tspan x="2110.79" y="-878.78"/></text><text transform="scale(4.0128 .2492)" x="723.09" y="-3875.52"/><text x="277.99" y="535.94"><tspan x="277.99" y="535.94"/></text><text x="729.64" y="233.74"><tspan x="729.64" y="233.74"/></text><text transform="scale(4.0128 .2492)" x="378.91" y="588.81"/><text x="1310.91" y="153.74"><tspan x="1310.91" y="153.74"/></text><text transform="scale(4.0128 .2492)" x="523.76" y="267.77"/><text x="239.33" y="-27.52"><tspan x="239.33" y="-27.52"/></text><text transform="scale(4.0128 .2492)" x="256.72" y="-459.58"/><text x="1337.38" y="-243.99"><tspan x="1337.38" y="-243.99"/></text><text transform="scale(4.0128 .2492)" x="530.36" y="-1328.25"/><text x="1918.65" y="-324"><tspan x="1918.65" y="-324"/></text><text transform="scale(4.0128 .2492)" x="675.21" y="-1649.28"/><text x="1529.53" y="-796.4"><tspan x="1529.53" y="-796.4"/></text><text transform="scale(4.0128 .2492)" x="578.24" y="-3544.93"/><text x="2110.8" y="-876.4"><tspan x="2110.8" y="-876.4"/></text><text transform="scale(4.0128 .2492)" x="723.09" y="-3865.97"/><text x="277.99" y="538.32"><tspan x="277.99" y="538.32"/></text><text x="3833.78" y="-509.14"><tspan x="3833.78" y="-509.14"/></text><text transform="scale(4.0128 .2492)" x="1152.45" y="-2392.22"/><text x="4415.05" y="-589.14"><tspan x="4415.05" y="-589.14"/></text><text transform="scale(4.0128 .2492)" x="1297.3" y="-2713.25"/><text x="3343.47" y="-770.39"><tspan x="3343.47" y="-770.39"/></text><text transform="scale(4.0128 .2492)" x="1030.26" y="-3440.6"/><text x="4441.52" y="-986.87"><tspan x="4441.52" y="-986.87"/></text><text transform="scale(4.0128 .2492)" x="1303.9" y="-4309.27"/><text x="5022.79" y="-1066.87"><tspan x="5022.79" y="-1066.87"/></text><text transform="scale(4.0128 .2492)" x="1448.75" y="-4630.3"/><text x="4633.67" y="-1539.27"><tspan x="4633.67" y="-1539.27"/></text><text transform="scale(4.0128 .2492)" x="1351.78" y="-6525.96"/><text x="5214.93" y="-1619.27"><tspan x="5214.93" y="-1619.27"/></text><text transform="scale(4.0128 .2492)" x="1496.63" y="-6846.98"/><text x="3382.13" y="-204.56"><tspan x="3382.13" y="-204.56"/></text><text x="-205.86" y="187.35"><tspan x="-205.86" y="187.35"/></text><text transform="scale(4.0128 .2492)" x="145.78" y="402.66"/><text x="375.41" y="107.35"><tspan x="375.41" y="107.35"/></text><text transform="scale(4.0128 .2492)" x="290.63" y="81.62"/><text x="-696.17" y="-73.908"><tspan x="-696.17" y="-73.908"/></text><text transform="scale(4.0128 .2492)" x="23.594" y="-645.73"/><text x="401.88" y="-290.38"><tspan x="401.88" y="-290.38"/></text><text transform="scale(4.0128 .2492)" x="297.23" y="-1514.39"/><text x="983.14" y="-370.38"><tspan x="983.14" y="-370.38"/></text><text transform="scale(4.0128 .2492)" x="442.08" y="-1835.43"/><text x="594.02" y="-842.78"><tspan x="594.02" y="-842.78"/></text><text transform="scale(4.0128 .2492)" x="345.11" y="-3731.08"/><text x="1175.29" y="-922.79"><tspan x="1175.29" y="-922.79"/></text><text transform="scale(4.0128 .2492)" x="489.96" y="-4052.12"/><text x="-657.52" y="491.93"><tspan x="-657.52" y="491.93"/></text><text x="-914.24" y="36.401"><tspan x="-914.24" y="36.401"/></text><text transform="scale(4.0128 .2492)" x="-30.748" y="-203.08"/><text x="-332.97" y="-43.601"><tspan x="-332.97" y="-43.601"/></text><text transform="scale(4.0128 .2492)" x="114.1" y="-524.11"/><text x="-1404.55" y="-224.86"><tspan x="-1404.55" y="-224.86"/></text><text transform="scale(4.0128 .2492)" x="-152.93" y="-1251.46"/><text x="-306.5" y="-441.33"><tspan x="-306.5" y="-441.33"/></text><text transform="scale(4.0128 .2492)" x="120.7" y="-2120.13"/><text x="274.77" y="-521.33"><tspan x="274.77" y="-521.33"/></text><text transform="scale(4.0128 .2492)" x="265.55" y="-2441.17"/><text x="-114.35" y="-993.73"><tspan x="-114.35" y="-993.73"/></text><text transform="scale(4.0128 .2492)" x="168.58" y="-4336.82"/><text x="466.91" y="-1073.74"><tspan x="466.91" y="-1073.74"/></text><text transform="scale(4.0128 .2492)" x="313.44" y="-4657.85"/><text x="-1365.89" y="340.98"><tspan x="-1365.89" y="340.98"/></text><text x="729.64" y="231.36"><tspan x="729.64" y="231.36"/></text><text transform="scale(4.0128 .2492)" x="378.91" y="579.26"/><text x="1310.91" y="151.36"><tspan x="1310.91" y="151.36"/></text><text transform="scale(4.0128 .2492)" x="523.76" y="258.22"/><text x="239.33" y="-29.9"><tspan x="239.33" y="-29.9"/></text><text transform="scale(4.0128 .2492)" x="256.72" y="-469.13"/><text x="1337.38" y="-246.37"><tspan x="1337.38" y="-246.37"/></text><text transform="scale(4.0128 .2492)" x="530.36" y="-1337.79"/><text x="1918.65" y="-326.37"><tspan x="1918.65" y="-326.37"/></text><text transform="scale(4.0128 .2492)" x="675.21" y="-1658.82"/><text x="1529.53" y="-798.77"><tspan x="1529.53" y="-798.77"/></text><text transform="scale(4.0128 .2492)" x="578.24" y="-3554.46"/><text x="2110.79" y="-878.78"><tspan x="2110.79" y="-878.78"/></text><text transform="scale(4.0128 .2492)" x="723.09" y="-3875.5"/><text x="277.99" y="535.94"><tspan x="277.99" y="535.94"/></text><text x="89.64" y="159.96"><tspan x="89.64" y="159.96"/></text><text transform="scale(4.0128 .2492)" x="219.42" y="292.73"/><text x="670.91" y="79.958"><tspan x="670.91" y="79.958"/></text><text transform="scale(4.0128 .2492)" x="364.27" y="-28.31"/><text x="-400.67" y="-101.3"><tspan x="-400.67" y="-101.3"/></text><text transform="scale(4.0128 .2492)" x="97.23" y="-755.65"/><text x="697.38" y="-317.77"><tspan x="697.38" y="-317.77"/></text><text transform="scale(4.0128 .2492)" x="370.87" y="-1624.32"/><text x="1278.65" y="-397.78"><tspan x="1278.65" y="-397.78"/></text><text transform="scale(4.0128 .2492)" x="515.72" y="-1945.35"/><text x="889.53" y="-870.18"><tspan x="889.53" y="-870.18"/></text><text transform="scale(4.0128 .2492)" x="418.75" y="-3840.99"/><text x="1470.8" y="-950.18"><tspan x="1470.8" y="-950.18"/></text><text transform="scale(4.0128 .2492)" x="563.6" y="-4162.02"/><text x="-362.01" y="464.54"><tspan x="-362.01" y="464.54"/></text><text x="3193.78" y="-582.92"><tspan x="3193.78" y="-582.92"/></text><text transform="scale(4.0128 .2492)" x="992.96" y="-2688.28"/><text x="3775.05" y="-662.92"><tspan x="3775.05" y="-662.92"/></text><text transform="scale(4.0128 .2492)" x="1137.8" y="-3009.3"/><text x="2703.47" y="-844.17"><tspan x="2703.47" y="-844.17"/></text><text transform="scale(4.0128 .2492)" x="870.78" y="-3736.66"/><text x="3801.52" y="-1060.65"><tspan x="3801.52" y="-1060.65"/></text><text transform="scale(4.0128 .2492)" x="1144.4" y="-4605.32"/><text x="4382.79" y="-1140.65"><tspan x="4382.79" y="-1140.65"/></text><text transform="scale(4.0128 .2492)" x="1289.25" y="-4926.34"/><text x="3993.67" y="-1613.05"><tspan x="3993.67" y="-1613.05"/></text><text transform="scale(4.0128 .2492)" x="1192.28" y="-6821.99"/><text x="4574.93" y="-1693.05"><tspan x="4574.93" y="-1693.05"/></text><text transform="scale(4.0128 .2492)" x="1337.13" y="-7143.02"/><text x="2742.13" y="-278.34"><tspan x="2742.13" y="-278.34"/></text><text x="-549.88" y="66.88"><tspan x="-549.88" y="66.88"/></text><text transform="scale(4.0128 .2492)" x="60.05" y="-80.78"/><text x="31.394" y="-13.12"><tspan x="31.394" y="-13.12"/></text><text transform="scale(4.0128 .2492)" x="204.9" y="-401.81"/><text x="-1040.19" y="-194.38"><tspan x="-1040.19" y="-194.38"/></text><text transform="scale(4.0128 .2492)" x="-62.14" y="-1129.16"/><text x="57.864" y="-410.85"><tspan x="57.864" y="-410.85"/></text><text transform="scale(4.0128 .2492)" x="211.5" y="-1997.82"/><text x="639.13" y="-490.86"><tspan x="639.13" y="-490.86"/></text><text transform="scale(4.0128 .2492)" x="356.35" y="-2318.86"/><text x="250.01" y="-963.26"><tspan x="250.01" y="-963.26"/></text><text transform="scale(4.0128 .2492)" x="259.38" y="-4214.5"/><text x="831.27" y="-1043.26"><tspan x="831.27" y="-1043.26"/></text><text transform="scale(4.0128 .2492)" x="404.23" y="-4535.53"/><text x="-1001.53" y="371.46"><tspan x="-1001.53" y="371.46"/></text><text x="-3225.36" y="352.5"><tspan x="-3225.36" y="352.5"/></text><text transform="scale(4.0128 .2492)" x="-486.04" y="851.62"/><text x="-2519.02" y="196.87"><tspan x="-2519.02" y="196.87"/></text><text transform="scale(4.0128 .2492)" x="-310.02" y="227.1"/><text x="-2485.65" y="188.75"><tspan x="-2485.65" y="188.75"/></text><text transform="scale(4.0128 .2492)" x="-301.7" y="194.5"/><text x="-1335.23" y="34.34"><tspan x="-1335.23" y="34.34"/></text><text transform="scale(4.0128 .2492)" x="-135.66" y="-211.36"/><text x="-753.97" y="-45.66"><tspan x="-753.97" y="-45.66"/></text><text transform="scale(4.0128 .2492)" x="9.191" y="-532.4"/><text x="-1825.55" y="-226.92"><tspan x="-1825.55" y="-226.92"/></text><text transform="scale(4.0128 .2492)" x="-257.85" y="-1259.73"/><text x="-727.5" y="-443.39"><tspan x="-727.5" y="-443.39"/></text><text transform="scale(4.0128 .2492)" x="15.791" y="-2128.4"/><text x="-146.23" y="-523.39"><tspan x="-146.23" y="-523.39"/></text><text transform="scale(4.0128 .2492)" x="160.63" y="-2449.43"/><text x="-535.35" y="-995.79"><tspan x="-535.35" y="-995.79"/></text><text transform="scale(4.0128 .2492)" x="63.67" y="-4345.06"/><text x="45.914" y="-1075.8"><tspan x="45.914" y="-1075.8"/></text><text transform="scale(4.0128 .2492)" x="208.51" y="-4666.1"/><text x="-1786.89" y="338.92"><tspan x="-1786.89" y="338.92"/></text><text x="-1385.68" y="-704.67"><tspan x="-1385.68" y="-704.67"/></text><text transform="scale(4.0128 .2492)" x="-148.23" y="-3176.85"/><text x="-804.41" y="-784.67"><tspan x="-804.41" y="-784.67"/></text><text transform="scale(4.0128 .2492)" x="-3.379" y="-3497.87"/><text x="-1875.99" y="-965.93"><tspan x="-1875.99" y="-965.93"/></text><text transform="scale(4.0128 .2492)" x="-270.42" y="-4225.23"/><text x="-777.94" y="-1182.4"><tspan x="-777.94" y="-1182.4"/></text><text transform="scale(4.0128 .2492)" x="3.221" y="-5093.88"/><text x="-196.68" y="-1262.41"><tspan x="-196.68" y="-1262.41"/></text><text transform="scale(4.0128 .2492)" x="148.06" y="-5414.92"/><text x="-585.8" y="-1734.81"><tspan x="-585.8" y="-1734.81"/></text><text transform="scale(4.0128 .2492)" x="51.1" y="-7310.55"/><text x="-4.526" y="-1814.81"><tspan x="-4.526" y="-1814.81"/></text><text transform="scale(4.0128 .2492)" x="195.94" y="-7631.57"/><text x="-1837.34" y="-400.09"><tspan x="-1837.34" y="-400.09"/></text><text x="1718.46" y="-1447.55"><tspan x="1718.46" y="-1447.55"/></text><text transform="scale(4.0128 .2492)" x="625.31" y="-6157.84"/><text x="2299.72" y="-1527.55"><tspan x="2299.72" y="-1527.55"/></text><text transform="scale(4.0128 .2492)" x="770.16" y="-6478.88"/><text x="1228.14" y="-1708.8"><tspan x="1228.14" y="-1708.8"/></text><text transform="scale(4.0128 .2492)" x="503.12" y="-7206.21"/><text x="2326.19" y="-1925.28"><tspan x="2326.19" y="-1925.28"/></text><text transform="scale(4.0128 .2492)" x="776.76" y="-8074.87"/><text x="2907.46" y="-2005.28"><tspan x="2907.46" y="-2005.28"/></text><text transform="scale(4.0128 .2492)" x="921.61" y="-8395.91"/><text x="2518.34" y="-2477.68"><tspan x="2518.34" y="-2477.68"/></text><text transform="scale(4.0128 .2492)" x="824.64" y="-10291.54"/><text x="3099.61" y="-2557.68"><tspan x="3099.61" y="-2557.68"/></text><text transform="scale(4.0128 .2492)" x="969.49" y="-10612.57"/><text x="1266.8" y="-1142.97"><tspan x="1266.8" y="-1142.97"/></text><text x="-3275.81" y="-388.89"><tspan x="-3275.81" y="-388.89"/></text><text transform="scale(4.0128 .2492)" x="-498.61" y="-2123.43"/><text x="-3275.81" y="-388.89"><tspan x="-3275.81" y="-388.89"/></text><text transform="scale(4.0128 .2492)" x="-498.61" y="-2123.43"/><text x="-3609.36" y="244.02"><tspan x="-3609.36" y="244.02"/></text><text transform="scale(4.0128 .2492)" x="-581.73" y="416.32"/><text x="-2903.02" y="88.39"><tspan x="-2903.02" y="88.39"/></text><text transform="scale(4.0128 .2492)" x="-405.71" y="-208.19"/><text x="-1160.48" y="549.52"><tspan x="-1160.48" y="549.52"/></text><text transform="scale(4.0128 .2492)" x="28.534" y="1642.23"/><text x="-454.14" y="393.89"><tspan x="-454.14" y="393.89"/></text><text transform="scale(4.0128 .2492)" x="204.55" y="1017.71"/><text x="-420.77" y="385.77"><tspan x="-420.77" y="385.77"/></text><text transform="scale(4.0128 .2492)" x="212.87" y="985.11"/><text x="729.64" y="231.36"><tspan x="729.64" y="231.36"/></text><text transform="scale(4.0128 .2492)" x="378.91" y="579.26"/><text x="1310.91" y="151.36"><tspan x="1310.91" y="151.36"/></text><text transform="scale(4.0128 .2492)" x="523.76" y="258.22"/><text x="239.33" y="-29.9"><tspan x="239.33" y="-29.9"/></text><text transform="scale(4.0128 .2492)" x="256.72" y="-469.13"/><text x="1337.38" y="-246.37"><tspan x="1337.38" y="-246.37"/></text><text transform="scale(4.0128 .2492)" x="530.36" y="-1337.79"/><text x="1918.65" y="-326.37"><tspan x="1918.65" y="-326.37"/></text><text transform="scale(4.0128 .2492)" x="675.21" y="-1658.82"/><text x="1529.53" y="-798.77"><tspan x="1529.53" y="-798.77"/></text><text transform="scale(4.0128 .2492)" x="578.24" y="-3554.46"/><text x="2110.79" y="-878.78"><tspan x="2110.79" y="-878.78"/></text><text transform="scale(4.0128 .2492)" x="723.09" y="-3875.5"/><text x="277.99" y="535.94"><tspan x="277.99" y="535.94"/></text><text x="679.2" y="-507.65"><tspan x="679.2" y="-507.65"/></text><text transform="scale(4.0128 .2492)" x="366.34" y="-2386.26"/><text x="1260.47" y="-587.65"><tspan x="1260.47" y="-587.65"/></text><text transform="scale(4.0128 .2492)" x="511.19" y="-2707.28"/><text x="188.89" y="-768.91"><tspan x="188.89" y="-768.91"/></text><text transform="scale(4.0128 .2492)" x="244.15" y="-3434.63"/><text x="1286.94" y="-985.38"><tspan x="1286.94" y="-985.38"/></text><text transform="scale(4.0128 .2492)" x="517.79" y="-4303.3"/><text x="1868.2" y="-1065.39"><tspan x="1868.2" y="-1065.39"/></text><text transform="scale(4.0128 .2492)" x="662.64" y="-4624.33"/><text x="1479.08" y="-1537.79"><tspan x="1479.08" y="-1537.79"/></text><text transform="scale(4.0128 .2492)" x="565.67" y="-6519.98"/><text x="2060.35" y="-1617.79"><tspan x="2060.35" y="-1617.79"/></text><text transform="scale(4.0128 .2492)" x="710.52" y="-6840.99"/><text x="227.54" y="-203.07"><tspan x="227.54" y="-203.07"/></text><text x="3783.34" y="-1250.53"><tspan x="3783.34" y="-1250.53"/></text><text transform="scale(4.0128 .2492)" x="1139.87" y="-5367.25"/><text x="4364.6" y="-1330.53"><tspan x="4364.6" y="-1330.53"/></text><text transform="scale(4.0128 .2492)" x="1284.72" y="-5688.29"/><text x="3293.02" y="-1511.78"><tspan x="3293.02" y="-1511.78"/></text><text transform="scale(4.0128 .2492)" x="1017.68" y="-6415.64"/><text x="4391.07" y="-1728.26"><tspan x="4391.07" y="-1728.26"/></text><text transform="scale(4.0128 .2492)" x="1291.32" y="-7284.29"/><text x="4972.34" y="-1808.26"><tspan x="4972.34" y="-1808.26"/></text><text transform="scale(4.0128 .2492)" x="1436.17" y="-7605.33"/><text x="4583.22" y="-2280.66"><tspan x="4583.22" y="-2280.66"/></text><text transform="scale(4.0128 .2492)" x="1339.2" y="-9500.97"/><text x="5164.49" y="-2360.66"><tspan x="5164.49" y="-2360.66"/></text><text transform="scale(4.0128 .2492)" x="1484.05" y="-9822"/><text x="3331.68" y="-945.95"><tspan x="3331.68" y="-945.95"/></text><text x="-1210.93" y="-191.87"><tspan x="-1210.93" y="-191.87"/></text><text transform="scale(4.0128 .2492)" x="15.963" y="-1332.82"/><text x="-1210.93" y="-191.87"><tspan x="-1210.93" y="-191.87"/></text><text transform="scale(4.0128 .2492)" x="15.963" y="-1332.82"/><text x="729.64" y="231.36"><tspan x="729.64" y="231.36"/></text><text transform="scale(4.0128 .2492)" x="378.91" y="579.26"/><text x="1310.91" y="151.36"><tspan x="1310.91" y="151.36"/></text><text transform="scale(4.0128 .2492)" x="523.76" y="258.22"/><text x="239.33" y="-29.9"><tspan x="239.33" y="-29.9"/></text><text transform="scale(4.0128 .2492)" x="256.72" y="-469.13"/><text x="1337.38" y="-246.37"><tspan x="1337.38" y="-246.37"/></text><text transform="scale(4.0128 .2492)" x="530.36" y="-1337.8"/><text x="1918.65" y="-326.37"><tspan x="1918.65" y="-326.37"/></text><text transform="scale(4.0128 .2492)" x="675.21" y="-1658.83"/><text x="1529.53" y="-798.77"><tspan x="1529.53" y="-798.77"/></text><text transform="scale(4.0128 .2492)" x="578.24" y="-3554.48"/><text x="2110.79" y="-878.78"><tspan x="2110.79" y="-878.78"/></text><text transform="scale(4.0128 .2492)" x="723.09" y="-3875.52"/><text x="277.99" y="535.94"><tspan x="277.99" y="535.94"/></text><text x="729.64" y="231.36"><tspan x="729.64" y="231.36"/></text><text transform="scale(4.0128 .2492)" x="378.91" y="579.26"/><text x="1310.91" y="151.36"><tspan x="1310.91" y="151.36"/></text><text transform="scale(4.0128 .2492)" x="523.76" y="258.22"/><text x="239.33" y="-29.9"><tspan x="239.33" y="-29.9"/></text><text transform="scale(4.0128 .2492)" x="256.72" y="-469.13"/><text x="1337.38" y="-246.37"><tspan x="1337.38" y="-246.37"/></text><text transform="scale(4.0128 .2492)" x="530.36" y="-1337.8"/><text x="1918.65" y="-326.37"><tspan x="1918.65" y="-326.37"/></text><text transform="scale(4.0128 .2492)" x="675.21" y="-1658.83"/><text x="1529.53" y="-798.77"><tspan x="1529.53" y="-798.77"/></text><text transform="scale(4.0128 .2492)" x="578.24" y="-3554.48"/><text x="2110.79" y="-878.78"><tspan x="2110.79" y="-878.78"/></text><text transform="scale(4.0128 .2492)" x="723.09" y="-3875.52"/><text x="277.99" y="535.94"><tspan x="277.99" y="535.94"/></text><text x="729.64" y="231.36"><tspan x="729.64" y="231.36"/></text><text transform="scale(4.0128 .2492)" x="378.91" y="579.26"/><text x="1310.91" y="151.36"><tspan x="1310.91" y="151.36"/></text><text transform="scale(4.0128 .2492)" x="523.76" y="258.22"/><text x="239.33" y="-29.9"><tspan x="239.33" y="-29.9"/></text><text transform="scale(4.0128 .2492)" x="256.72" y="-469.13"/><text x="1337.38" y="-246.37"><tspan x="1337.38" y="-246.37"/></text><text transform="scale(4.0128 .2492)" x="530.36" y="-1337.8"/><text x="1918.65" y="-326.37"><tspan x="1918.65" y="-326.37"/></text><text transform="scale(4.0128 .2492)" x="675.21" y="-1658.83"/><text x="1529.53" y="-798.77"><tspan x="1529.53" y="-798.77"/></text><text transform="scale(4.0128 .2492)" x="578.24" y="-3554.48"/><text x="2110.79" y="-878.78"><tspan x="2110.79" y="-878.78"/></text><text transform="scale(4.0128 .2492)" x="723.09" y="-3875.52"/><text x="277.99" y="535.94"><tspan x="277.99" y="535.94"/></text><text x="729.64" y="231.36"><tspan x="729.64" y="231.36"/></text><text transform="scale(4.0128 .2492)" x="378.91" y="579.26"/><text x="1310.91" y="151.36"><tspan x="1310.91" y="151.36"/></text><text transform="scale(4.0128 .2492)" x="523.76" y="258.22"/><text x="239.33" y="-29.9"><tspan x="239.33" y="-29.9"/></text><text transform="scale(4.0128 .2492)" x="256.72" y="-469.13"/><text x="1337.38" y="-246.37"><tspan x="1337.38" y="-246.37"/></text><text transform="scale(4.0128 .2492)" x="530.36" y="-1337.8"/><text x="1918.65" y="-326.37"><tspan x="1918.65" y="-326.37"/></text><text transform="scale(4.0128 .2492)" x="675.21" y="-1658.83"/><text x="1529.53" y="-798.77"><tspan x="1529.53" y="-798.77"/></text><text transform="scale(4.0128 .2492)" x="578.24" y="-3554.48"/><text x="2110.79" y="-878.78"><tspan x="2110.79" y="-878.78"/></text><text transform="scale(4.0128 .2492)" x="723.09" y="-3875.52"/><text x="277.99" y="535.94"><tspan x="277.99" y="535.94"/></text><text x="1611.91" y="53.22"><tspan x="1611.91" y="53.22"/></text><text transform="scale(4.0128 .2492)" x="598.77" y="-135.58"/><text x="2193.18" y="-26.78"><tspan x="2193.18" y="-26.78"/></text><text transform="scale(4.0128 .2492)" x="743.62" y="-456.62"/><text x="1121.6" y="-208.04"><tspan x="1121.6" y="-208.04"/></text><text transform="scale(4.0128 .2492)" x="476.58" y="-1183.97"/><text x="2219.65" y="-424.51"><tspan x="2219.65" y="-424.51"/></text><text transform="scale(4.0128 .2492)" x="750.22" y="-2052.64"/><text x="2800.92" y="-504.51"><tspan x="2800.92" y="-504.51"/></text><text transform="scale(4.0128 .2492)" x="895.07" y="-2373.67"/><text x="2411.8" y="-976.91"><tspan x="2411.8" y="-976.91"/></text><text transform="scale(4.0128 .2492)" x="798.1" y="-4269.32"/><text x="2993.06" y="-1056.92"><tspan x="2993.06" y="-1056.92"/></text><text transform="scale(4.0128 .2492)" x="942.95" y="-4590.36"/><text x="1160.26" y="357.8"><tspan x="1160.26" y="357.8"/></text><text x="729.64" y="231.36"><tspan x="729.64" y="231.36"/></text><text transform="scale(4.0128 .2492)" x="378.91" y="579.26"/><text x="1310.91" y="151.36"><tspan x="1310.91" y="151.36"/></text><text transform="scale(4.0128 .2492)" x="523.76" y="258.22"/><text x="239.33" y="-29.9"><tspan x="239.33" y="-29.9"/></text><text transform="scale(4.0128 .2492)" x="256.72" y="-469.13"/><text x="1337.38" y="-246.37"><tspan x="1337.38" y="-246.37"/></text><text transform="scale(4.0128 .2492)" x="530.36" y="-1337.8"/><text x="1918.65" y="-326.37"><tspan x="1918.65" y="-326.37"/></text><text transform="scale(4.0128 .2492)" x="675.21" y="-1658.83"/><text x="1529.53" y="-798.77"><tspan x="1529.53" y="-798.77"/></text><text transform="scale(4.0128 .2492)" x="578.24" y="-3554.48"/><text x="2110.79" y="-878.78"><tspan x="2110.79" y="-878.78"/></text><text transform="scale(4.0128 .2492)" x="723.09" y="-3875.52"/><text x="277.99" y="535.94"><tspan x="277.99" y="535.94"/></text><text x="729.64" y="231.36"><tspan x="729.64" y="231.36"/></text><text transform="scale(4.0128 .2492)" x="378.91" y="579.26"/><text x="1310.91" y="151.36"><tspan x="1310.91" y="151.36"/></text><text transform="scale(4.0128 .2492)" x="523.76" y="258.22"/><text x="239.33" y="-29.9"><tspan x="239.33" y="-29.9"/></text><text transform="scale(4.0128 .2492)" x="256.72" y="-469.13"/><text x="1337.38" y="-246.37"><tspan x="1337.38" y="-246.37"/></text><text transform="scale(4.0128 .2492)" x="530.36" y="-1337.8"/><text x="1918.65" y="-326.37"><tspan x="1918.65" y="-326.37"/></text><text transform="scale(4.0128 .2492)" x="675.21" y="-1658.83"/><text x="1529.53" y="-798.77"><tspan x="1529.53" y="-798.77"/></text><text transform="scale(4.0128 .2492)" x="578.24" y="-3554.48"/><text x="2110.79" y="-878.78"><tspan x="2110.79" y="-878.78"/></text><text transform="scale(4.0128 .2492)" x="723.09" y="-3875.52"/><text x="277.99" y="535.94"><tspan x="277.99" y="535.94"/></text><text x="729.64" y="231.36"><tspan x="729.64" y="231.36"/></text><text transform="scale(4.0128 .2492)" x="378.91" y="579.26"/><text x="1310.91" y="151.36"><tspan x="1310.91" y="151.36"/></text><text transform="scale(4.0128 .2492)" x="523.76" y="258.22"/><text x="239.33" y="-29.9"><tspan x="239.33" y="-29.9"/></text><text transform="scale(4.0128 .2492)" x="256.72" y="-469.13"/><text x="1337.38" y="-246.37"><tspan x="1337.38" y="-246.37"/></text><text transform="scale(4.0128 .2492)" x="530.36" y="-1337.8"/><text x="1918.65" y="-326.37"><tspan x="1918.65" y="-326.37"/></text><text transform="scale(4.0128 .2492)" x="675.21" y="-1658.83"/><text x="1529.53" y="-798.77"><tspan x="1529.53" y="-798.77"/></text><text transform="scale(4.0128 .2492)" x="578.24" y="-3554.48"/><text x="2110.79" y="-878.78"><tspan x="2110.79" y="-878.78"/></text><text transform="scale(4.0128 .2492)" x="723.09" y="-3875.52"/><text x="277.99" y="535.94"><tspan x="277.99" y="535.94"/></text><text x="729.64" y="231.36"><tspan x="729.64" y="231.36"/></text><text transform="scale(4.0128 .2492)" x="378.91" y="579.26"/><text x="1310.91" y="151.36"><tspan x="1310.91" y="151.36"/></text><text transform="scale(4.0128 .2492)" x="523.76" y="258.22"/><text x="239.33" y="-29.9"><tspan x="239.33" y="-29.9"/></text><text transform="scale(4.0128 .2492)" x="256.72" y="-469.13"/><text x="1337.38" y="-246.37"><tspan x="1337.38" y="-246.37"/></text><text transform="scale(4.0128 .2492)" x="530.36" y="-1337.79"/><text x="1918.65" y="-326.37"><tspan x="1918.65" y="-326.37"/></text><text transform="scale(4.0128 .2492)" x="675.21" y="-1658.82"/><text x="1529.53" y="-798.77"><tspan x="1529.53" y="-798.77"/></text><text transform="scale(4.0128 .2492)" x="578.24" y="-3554.46"/><text x="2110.79" y="-878.78"><tspan x="2110.79" y="-878.78"/></text><text transform="scale(4.0128 .2492)" x="723.09" y="-3875.5"/><text x="277.99" y="535.94"><tspan x="277.99" y="535.94"/></text><text x="729.64" y="231.36"><tspan x="729.64" y="231.36"/></text><text transform="scale(4.0128 .2492)" x="378.91" y="579.26"/><text x="1310.91" y="151.36"><tspan x="1310.91" y="151.36"/></text><text transform="scale(4.0128 .2492)" x="523.76" y="258.22"/><text x="239.33" y="-29.9"><tspan x="239.33" y="-29.9"/></text><text transform="scale(4.0128 .2492)" x="256.72" y="-469.13"/><text x="1337.38" y="-246.37"><tspan x="1337.38" y="-246.37"/></text><text transform="scale(4.0128 .2492)" x="530.36" y="-1337.8"/><text x="1918.65" y="-326.37"><tspan x="1918.65" y="-326.37"/></text><text transform="scale(4.0128 .2492)" x="675.21" y="-1658.83"/><text x="1529.53" y="-798.77"><tspan x="1529.53" y="-798.77"/></text><text transform="scale(4.0128 .2492)" x="578.24" y="-3554.48"/><text x="2110.79" y="-878.78"><tspan x="2110.79" y="-878.78"/></text><text transform="scale(4.0128 .2492)" x="723.09" y="-3875.52"/><text x="277.99" y="535.94"><tspan x="277.99" y="535.94"/></text><text x="729.64" y="231.36"><tspan x="729.64" y="231.36"/></text><text transform="scale(4.0128 .2492)" x="378.91" y="579.26"/><text x="1310.91" y="151.36"><tspan x="1310.91" y="151.36"/></text><text transform="scale(4.0128 .2492)" x="523.76" y="258.22"/><text x="239.33" y="-29.9"><tspan x="239.33" y="-29.9"/></text><text transform="scale(4.0128 .2492)" x="256.72" y="-469.13"/><text x="1337.38" y="-246.37"><tspan x="1337.38" y="-246.37"/></text><text transform="scale(4.0128 .2492)" x="530.36" y="-1337.8"/><text x="1918.65" y="-326.37"><tspan x="1918.65" y="-326.37"/></text><text transform="scale(4.0128 .2492)" x="675.21" y="-1658.83"/><text x="1529.53" y="-798.77"><tspan x="1529.53" y="-798.77"/></text><text transform="scale(4.0128 .2492)" x="578.24" y="-3554.48"/><text x="2110.79" y="-878.78"><tspan x="2110.79" y="-878.78"/></text><text transform="scale(4.0128 .2492)" x="723.09" y="-3875.52"/><text x="277.99" y="535.94"><tspan x="277.99" y="535.94"/></text><text x="729.64" y="231.36"><tspan x="729.64" y="231.36"/></text><text transform="scale(4.0128 .2492)" x="378.91" y="579.26"/><text x="1310.91" y="151.36"><tspan x="1310.91" y="151.36"/></text><text transform="scale(4.0128 .2492)" x="523.76" y="258.22"/><text x="239.33" y="-29.9"><tspan x="239.33" y="-29.9"/></text><text transform="scale(4.0128 .2492)" x="256.72" y="-469.13"/><text x="1337.38" y="-246.37"><tspan x="1337.38" y="-246.37"/></text><text transform="scale(4.0128 .2492)" x="530.36" y="-1337.8"/><text x="1918.65" y="-326.37"><tspan x="1918.65" y="-326.37"/></text><text transform="scale(4.0128 .2492)" x="675.21" y="-1658.83"/><text x="1529.53" y="-798.77"><tspan x="1529.53" y="-798.77"/></text><text transform="scale(4.0128 .2492)" x="578.24" y="-3554.48"/><text x="2110.79" y="-878.78"><tspan x="2110.79" y="-878.78"/></text><text transform="scale(4.0128 .2492)" x="723.09" y="-3875.52"/><text x="277.99" y="535.94"><tspan x="277.99" y="535.94"/></text><text x="729.64" y="231.36"><tspan x="729.64" y="231.36"/></text><text transform="scale(4.0128 .2492)" x="378.91" y="579.26"/><text x="1310.91" y="151.36"><tspan x="1310.91" y="151.36"/></text><text transform="scale(4.0128 .2492)" x="523.76" y="258.22"/><text x="239.33" y="-29.9"><tspan x="239.33" y="-29.9"/></text><text transform="scale(4.0128 .2492)" x="256.72" y="-469.13"/><text x="1337.38" y="-246.37"><tspan x="1337.38" y="-246.37"/></text><text transform="scale(4.0128 .2492)" x="530.36" y="-1337.8"/><text x="1918.65" y="-326.37"><tspan x="1918.65" y="-326.37"/></text><text transform="scale(4.0128 .2492)" x="675.21" y="-1658.83"/><text x="1529.53" y="-798.77"><tspan x="1529.53" y="-798.77"/></text><text transform="scale(4.0128 .2492)" x="578.24" y="-3554.48"/><text x="2110.79" y="-878.78"><tspan x="2110.79" y="-878.78"/></text><text transform="scale(4.0128 .2492)" x="723.09" y="-3875.52"/><text x="277.99" y="535.94"><tspan x="277.99" y="535.94"/></text><text x="729.64" y="231.36"><tspan x="729.64" y="231.36"/></text><text transform="scale(4.0128 .2492)" x="378.91" y="579.26"/><text x="1310.91" y="151.36"><tspan x="1310.91" y="151.36"/></text><text transform="scale(4.0128 .2492)" x="523.76" y="258.22"/><text x="239.33" y="-29.9"><tspan x="239.33" y="-29.9"/></text><text transform="scale(4.0128 .2492)" x="256.72" y="-469.13"/><text x="1337.38" y="-246.37"><tspan x="1337.38" y="-246.37"/></text><text transform="scale(4.0128 .2492)" x="530.36" y="-1337.79"/><text x="1918.65" y="-326.37"><tspan x="1918.65" y="-326.37"/></text><text transform="scale(4.0128 .2492)" x="675.21" y="-1658.82"/><text x="1529.53" y="-798.77"><tspan x="1529.53" y="-798.77"/></text><text transform="scale(4.0128 .2492)" x="578.24" y="-3554.46"/><text x="2110.79" y="-878.78"><tspan x="2110.79" y="-878.78"/></text><text transform="scale(4.0128 .2492)" x="723.09" y="-3875.5"/><text x="277.99" y="535.94"><tspan x="277.99" y="535.94"/></text><text x="729.64" y="231.36"><tspan x="729.64" y="231.36"/></text><text transform="scale(4.0128 .2492)" x="378.91" y="579.26"/><text x="1310.91" y="151.36"><tspan x="1310.91" y="151.36"/></text><text transform="scale(4.0128 .2492)" x="523.76" y="258.22"/><text x="239.33" y="-29.9"><tspan x="239.33" y="-29.9"/></text><text transform="scale(4.0128 .2492)" x="256.72" y="-469.13"/><text x="1337.38" y="-246.37"><tspan x="1337.38" y="-246.37"/></text><text transform="scale(4.0128 .2492)" x="530.36" y="-1337.8"/><text x="1918.65" y="-326.37"><tspan x="1918.65" y="-326.37"/></text><text transform="scale(4.0128 .2492)" x="675.21" y="-1658.83"/><text x="1529.53" y="-798.77"><tspan x="1529.53" y="-798.77"/></text><text transform="scale(4.0128 .2492)" x="578.24" y="-3554.48"/><text x="2110.79" y="-878.78"><tspan x="2110.79" y="-878.78"/></text><text transform="scale(4.0128 .2492)" x="723.09" y="-3875.52"/><text x="277.99" y="535.94"><tspan x="277.99" y="535.94"/></text><text x="729.64" y="231.36"><tspan x="729.64" y="231.36"/></text><text transform="scale(4.0128 .2492)" x="378.91" y="579.26"/><text x="1310.91" y="151.36"><tspan x="1310.91" y="151.36"/></text><text transform="scale(4.0128 .2492)" x="523.76" y="258.22"/><text x="239.33" y="-29.9"><tspan x="239.33" y="-29.9"/></text><text transform="scale(4.0128 .2492)" x="256.72" y="-469.13"/><text x="1337.38" y="-246.37"><tspan x="1337.38" y="-246.37"/></text><text transform="scale(4.0128 .2492)" x="530.36" y="-1337.8"/><text x="1918.65" y="-326.37"><tspan x="1918.65" y="-326.37"/></text><text transform="scale(4.0128 .2492)" x="675.21" y="-1658.83"/><text x="1529.53" y="-798.77"><tspan x="1529.53" y="-798.77"/></text><text transform="scale(4.0128 .2492)" x="578.24" y="-3554.48"/><text x="2110.79" y="-878.78"><tspan x="2110.79" y="-878.78"/></text><text transform="scale(4.0128 .2492)" x="723.09" y="-3875.52"/><text x="277.99" y="535.94"><tspan x="277.99" y="535.94"/></text><text x="729.64" y="231.36"><tspan x="729.64" y="231.36"/></text><text transform="scale(4.0128 .2492)" x="378.91" y="579.26"/><text x="1310.91" y="151.36"><tspan x="1310.91" y="151.36"/></text><text transform="scale(4.0128 .2492)" x="523.76" y="258.22"/><text x="239.33" y="-29.9"><tspan x="239.33" y="-29.9"/></text><text transform="scale(4.0128 .2492)" x="256.72" y="-469.13"/><text x="1337.38" y="-246.37"><tspan x="1337.38" y="-246.37"/></text><text transform="scale(4.0128 .2492)" x="530.36" y="-1337.8"/><text x="1918.65" y="-326.37"><tspan x="1918.65" y="-326.37"/></text><text transform="scale(4.0128 .2492)" x="675.21" y="-1658.83"/><text x="1529.53" y="-798.77"><tspan x="1529.53" y="-798.77"/></text><text transform="scale(4.0128 .2492)" x="578.24" y="-3554.48"/><text x="2110.79" y="-878.78"><tspan x="2110.79" y="-878.78"/></text><text transform="scale(4.0128 .2492)" x="723.09" y="-3875.52"/><text x="277.99" y="535.94"><tspan x="277.99" y="535.94"/></text><text x="729.64" y="231.36"><tspan x="729.64" y="231.36"/></text><text transform="scale(4.0128 .2492)" x="378.91" y="579.26"/><text x="1310.91" y="151.36"><tspan x="1310.91" y="151.36"/></text><text transform="scale(4.0128 .2492)" x="523.76" y="258.22"/><text x="239.33" y="-29.9"><tspan x="239.33" y="-29.9"/></text><text transform="scale(4.0128 .2492)" x="256.72" y="-469.13"/><text x="1337.38" y="-246.37"><tspan x="1337.38" y="-246.37"/></text><text transform="scale(4.0128 .2492)" x="530.36" y="-1337.8"/><text x="1918.65" y="-326.37"><tspan x="1918.65" y="-326.37"/></text><text transform="scale(4.0128 .2492)" x="675.21" y="-1658.83"/><text x="1529.53" y="-798.77"><tspan x="1529.53" y="-798.77"/></text><text transform="scale(4.0128 .2492)" x="578.24" y="-3554.48"/><text x="2110.79" y="-878.78"><tspan x="2110.79" y="-878.78"/></text><text transform="scale(4.0128 .2492)" x="723.09" y="-3875.52"/><text x="277.99" y="535.94"><tspan x="277.99" y="535.94"/></text><text x="729.64" y="231.36"><tspan x="729.64" y="231.36"/></text><text transform="scale(4.0128 .2492)" x="378.91" y="579.26"/><text x="1310.91" y="151.36"><tspan x="1310.91" y="151.36"/></text><text transform="scale(4.0128 .2492)" x="523.76" y="258.22"/><text x="239.33" y="-29.9"><tspan x="239.33" y="-29.9"/></text><text transform="scale(4.0128 .2492)" x="256.72" y="-469.13"/><text x="1337.38" y="-246.37"><tspan x="1337.38" y="-246.37"/></text><text transform="scale(4.0128 .2492)" x="530.36" y="-1337.8"/><text x="1918.65" y="-326.37"><tspan x="1918.65" y="-326.37"/></text><text transform="scale(4.0128 .2492)" x="675.21" y="-1658.83"/><text x="1529.53" y="-798.77"><tspan x="1529.53" y="-798.77"/></text><text transform="scale(4.0128 .2492)" x="578.24" y="-3554.48"/><text x="2110.79" y="-878.78"><tspan x="2110.79" y="-878.78"/></text><text transform="scale(4.0128 .2492)" x="723.09" y="-3875.52"/><text x="277.99" y="535.94"><tspan x="277.99" y="535.94"/></text><text x="729.64" y="231.36"><tspan x="729.64" y="231.36"/></text><text transform="scale(4.0128 .2492)" x="378.91" y="579.26"/><text x="1310.91" y="151.36"><tspan x="1310.91" y="151.36"/></text><text transform="scale(4.0128 .2492)" x="523.76" y="258.22"/><text x="239.33" y="-29.9"><tspan x="239.33" y="-29.9"/></text><text transform="scale(4.0128 .2492)" x="256.72" y="-469.13"/><text x="1337.38" y="-246.37"><tspan x="1337.38" y="-246.37"/></text><text transform="scale(4.0128 .2492)" x="530.36" y="-1337.8"/><text x="1918.65" y="-326.37"><tspan x="1918.65" y="-326.37"/></text><text transform="scale(4.0128 .2492)" x="675.21" y="-1658.83"/><text x="1529.53" y="-798.77"><tspan x="1529.53" y="-798.77"/></text><text transform="scale(4.0128 .2492)" x="578.24" y="-3554.48"/><text x="2110.79" y="-878.78"><tspan x="2110.79" y="-878.78"/></text><text transform="scale(4.0128 .2492)" x="723.09" y="-3875.52"/><text x="277.99" y="535.94"><tspan x="277.99" y="535.94"/></text><text x="729.64" y="231.36"><tspan x="729.64" y="231.36"/></text><text transform="scale(4.0128 .2492)" x="378.91" y="579.26"/><text x="1310.91" y="151.36"><tspan x="1310.91" y="151.36"/></text><text transform="scale(4.0128 .2492)" x="523.76" y="258.22"/><text x="239.33" y="-29.9"><tspan x="239.33" y="-29.9"/></text><text transform="scale(4.0128 .2492)" x="256.72" y="-469.13"/><text x="1337.38" y="-246.37"><tspan x="1337.38" y="-246.37"/></text><text transform="scale(4.0128 .2492)" x="530.36" y="-1337.8"/><text x="1918.65" y="-326.37"><tspan x="1918.65" y="-326.37"/></text><text transform="scale(4.0128 .2492)" x="675.21" y="-1658.83"/><text x="1529.53" y="-798.77"><tspan x="1529.53" y="-798.77"/></text><text transform="scale(4.0128 .2492)" x="578.24" y="-3554.48"/><text x="2110.79" y="-878.78"><tspan x="2110.79" y="-878.78"/></text><text transform="scale(4.0128 .2492)" x="723.09" y="-3875.52"/><text x="277.99" y="535.94"><tspan x="277.99" y="535.94"/></text><text x="729.64" y="231.36"><tspan x="729.64" y="231.36"/></text><text transform="scale(4.0128 .2492)" x="378.91" y="579.26"/><text x="1310.91" y="151.36"><tspan x="1310.91" y="151.36"/></text><text transform="scale(4.0128 .2492)" x="523.76" y="258.22"/><text x="239.33" y="-29.9"><tspan x="239.33" y="-29.9"/></text><text transform="scale(4.0128 .2492)" x="256.72" y="-469.13"/><text x="1337.38" y="-246.37"><tspan x="1337.38" y="-246.37"/></text><text transform="scale(4.0128 .2492)" x="530.36" y="-1337.8"/><text x="1918.65" y="-326.37"><tspan x="1918.65" y="-326.37"/></text><text transform="scale(4.0128 .2492)" x="675.21" y="-1658.83"/><text x="1529.53" y="-798.77"><tspan x="1529.53" y="-798.77"/></text><text transform="scale(4.0128 .2492)" x="578.24" y="-3554.48"/><text x="2110.79" y="-878.78"><tspan x="2110.79" y="-878.78"/></text><text transform="scale(4.0128 .2492)" x="723.09" y="-3875.52"/><text x="277.99" y="535.94"><tspan x="277.99" y="535.94"/></text><text x="729.64" y="231.36"><tspan x="729.64" y="231.36"/></text><text transform="scale(4.0128 .2492)" x="378.91" y="579.26"/><text x="1310.91" y="151.36"><tspan x="1310.91" y="151.36"/></text><text transform="scale(4.0128 .2492)" x="523.76" y="258.22"/><text x="239.33" y="-29.9"><tspan x="239.33" y="-29.9"/></text><text transform="scale(4.0128 .2492)" x="256.72" y="-469.13"/><text x="1337.38" y="-246.37"><tspan x="1337.38" y="-246.37"/></text><text transform="scale(4.0128 .2492)" x="530.36" y="-1337.8"/><text x="1918.65" y="-326.37"><tspan x="1918.65" y="-326.37"/></text><text transform="scale(4.0128 .2492)" x="675.21" y="-1658.83"/><text x="1529.53" y="-798.77"><tspan x="1529.53" y="-798.77"/></text><text transform="scale(4.0128 .2492)" x="578.24" y="-3554.48"/><text x="2110.79" y="-878.78"><tspan x="2110.79" y="-878.78"/></text><text transform="scale(4.0128 .2492)" x="723.09" y="-3875.52"/><text x="277.99" y="535.94"><tspan x="277.99" y="535.94"/></text><text x="729.64" y="231.36"><tspan x="729.64" y="231.36"/></text><text transform="scale(4.0128 .2492)" x="378.91" y="579.26"/><text x="1310.91" y="151.36"><tspan x="1310.91" y="151.36"/></text><text transform="scale(4.0128 .2492)" x="523.76" y="258.22"/><text x="239.33" y="-29.9"><tspan x="239.33" y="-29.9"/></text><text transform="scale(4.0128 .2492)" x="256.72" y="-469.13"/><text x="1337.38" y="-246.37"><tspan x="1337.38" y="-246.37"/></text><text transform="scale(4.0128 .2492)" x="530.36" y="-1337.8"/><text x="1918.65" y="-326.37"><tspan x="1918.65" y="-326.37"/></text><text transform="scale(4.0128 .2492)" x="675.21" y="-1658.83"/><text x="1529.53" y="-798.77"><tspan x="1529.53" y="-798.77"/></text><text transform="scale(4.0128 .2492)" x="578.24" y="-3554.48"/><text x="2110.79" y="-878.78"><tspan x="2110.79" y="-878.78"/></text><text transform="scale(4.0128 .2492)" x="723.09" y="-3875.52"/><text x="277.99" y="535.94"><tspan x="277.99" y="535.94"/></text><text x="729.64" y="231.36"><tspan x="729.64" y="231.36"/></text><text transform="scale(4.0128 .2492)" x="378.91" y="579.26"/><text x="1310.91" y="151.36"><tspan x="1310.91" y="151.36"/></text><text transform="scale(4.0128 .2492)" x="523.76" y="258.22"/><text x="239.33" y="-29.9"><tspan x="239.33" y="-29.9"/></text><text transform="scale(4.0128 .2492)" x="256.72" y="-469.13"/><text x="1337.38" y="-246.37"><tspan x="1337.38" y="-246.37"/></text><text transform="scale(4.0128 .2492)" x="530.36" y="-1337.8"/><text x="1918.65" y="-326.37"><tspan x="1918.65" y="-326.37"/></text><text transform="scale(4.0128 .2492)" x="675.21" y="-1658.83"/><text x="1529.53" y="-798.77"><tspan x="1529.53" y="-798.77"/></text><text transform="scale(4.0128 .2492)" x="578.24" y="-3554.48"/><text x="2110.79" y="-878.78"><tspan x="2110.79" y="-878.78"/></text><text transform="scale(4.0128 .2492)" x="723.09" y="-3875.52"/><text x="277.99" y="535.94"><tspan x="277.99" y="535.94"/></text><text x="729.64" y="231.36"><tspan x="729.64" y="231.36"/></text><text transform="scale(4.0128 .2492)" x="378.91" y="579.26"/><text x="1310.91" y="151.36"><tspan x="1310.91" y="151.36"/></text><text transform="scale(4.0128 .2492)" x="523.76" y="258.22"/><text x="239.33" y="-29.9"><tspan x="239.33" y="-29.9"/></text><text transform="scale(4.0128 .2492)" x="256.72" y="-469.13"/><text x="1337.38" y="-246.37"><tspan x="1337.38" y="-246.37"/></text><text transform="scale(4.0128 .2492)" x="530.36" y="-1337.8"/><text x="1918.65" y="-326.37"><tspan x="1918.65" y="-326.37"/></text><text transform="scale(4.0128 .2492)" x="675.21" y="-1658.83"/><text x="1529.53" y="-798.77"><tspan x="1529.53" y="-798.77"/></text><text transform="scale(4.0128 .2492)" x="578.24" y="-3554.48"/><text x="2110.79" y="-878.78"><tspan x="2110.79" y="-878.78"/></text><text transform="scale(4.0128 .2492)" x="723.09" y="-3875.52"/><text x="277.99" y="535.94"><tspan x="277.99" y="535.94"/></text><text x="729.64" y="233.74"><tspan x="729.64" y="233.74"/></text><text transform="scale(4.0128 .2492)" x="378.91" y="588.81"/><text x="1310.91" y="153.74"><tspan x="1310.91" y="153.74"/></text><text transform="scale(4.0128 .2492)" x="523.76" y="267.77"/><text x="239.33" y="-27.52"><tspan x="239.33" y="-27.52"/></text><text transform="scale(4.0128 .2492)" x="256.72" y="-459.58"/><text x="1337.38" y="-243.99"><tspan x="1337.38" y="-243.99"/></text><text transform="scale(4.0128 .2492)" x="530.36" y="-1328.25"/><text x="1918.65" y="-324"><tspan x="1918.65" y="-324"/></text><text transform="scale(4.0128 .2492)" x="675.21" y="-1649.28"/><text x="1529.53" y="-796.4"><tspan x="1529.53" y="-796.4"/></text><text transform="scale(4.0128 .2492)" x="578.24" y="-3544.93"/><text x="2110.8" y="-876.4"><tspan x="2110.8" y="-876.4"/></text><text transform="scale(4.0128 .2492)" x="723.09" y="-3865.97"/><text x="277.99" y="538.32"><tspan x="277.99" y="538.32"/></text><text x="3833.78" y="-509.14"><tspan x="3833.78" y="-509.14"/></text><text transform="scale(4.0128 .2492)" x="1152.45" y="-2392.22"/><text x="4415.05" y="-589.14"><tspan x="4415.05" y="-589.14"/></text><text transform="scale(4.0128 .2492)" x="1297.3" y="-2713.25"/><text x="3343.47" y="-770.39"><tspan x="3343.47" y="-770.39"/></text><text transform="scale(4.0128 .2492)" x="1030.26" y="-3440.6"/><text x="4441.52" y="-986.87"><tspan x="4441.52" y="-986.87"/></text><text transform="scale(4.0128 .2492)" x="1303.9" y="-4309.27"/><text x="5022.79" y="-1066.87"><tspan x="5022.79" y="-1066.87"/></text><text transform="scale(4.0128 .2492)" x="1448.75" y="-4630.3"/><text x="4633.67" y="-1539.27"><tspan x="4633.67" y="-1539.27"/></text><text transform="scale(4.0128 .2492)" x="1351.78" y="-6525.96"/><text x="5214.93" y="-1619.27"><tspan x="5214.93" y="-1619.27"/></text><text transform="scale(4.0128 .2492)" x="1496.63" y="-6846.98"/><text x="3382.13" y="-204.56"><tspan x="3382.13" y="-204.56"/></text><text x="-205.86" y="187.35"><tspan x="-205.86" y="187.35"/></text><text transform="scale(4.0128 .2492)" x="145.78" y="402.66"/><text x="375.41" y="107.35"><tspan x="375.41" y="107.35"/></text><text transform="scale(4.0128 .2492)" x="290.63" y="81.62"/><text x="-696.17" y="-73.908"><tspan x="-696.17" y="-73.908"/></text><text transform="scale(4.0128 .2492)" x="23.594" y="-645.73"/><text x="401.88" y="-290.38"><tspan x="401.88" y="-290.38"/></text><text transform="scale(4.0128 .2492)" x="297.23" y="-1514.39"/><text x="983.14" y="-370.38"><tspan x="983.14" y="-370.38"/></text><text transform="scale(4.0128 .2492)" x="442.08" y="-1835.43"/><text x="594.02" y="-842.78"><tspan x="594.02" y="-842.78"/></text><text transform="scale(4.0128 .2492)" x="345.11" y="-3731.08"/><text x="1175.29" y="-922.79"><tspan x="1175.29" y="-922.79"/></text><text transform="scale(4.0128 .2492)" x="489.96" y="-4052.12"/><text x="-657.52" y="491.93"><tspan x="-657.52" y="491.93"/></text><text x="-914.24" y="36.401"><tspan x="-914.24" y="36.401"/></text><text transform="scale(4.0128 .2492)" x="-30.748" y="-203.08"/><text x="-332.97" y="-43.601"><tspan x="-332.97" y="-43.601"/></text><text transform="scale(4.0128 .2492)" x="114.1" y="-524.11"/><text x="-1404.55" y="-224.86"><tspan x="-1404.55" y="-224.86"/></text><text transform="scale(4.0128 .2492)" x="-152.93" y="-1251.46"/><text x="-306.5" y="-441.33"><tspan x="-306.5" y="-441.33"/></text><text transform="scale(4.0128 .2492)" x="120.7" y="-2120.13"/><text x="274.77" y="-521.33"><tspan x="274.77" y="-521.33"/></text><text transform="scale(4.0128 .2492)" x="265.55" y="-2441.17"/><text x="-114.35" y="-993.73"><tspan x="-114.35" y="-993.73"/></text><text transform="scale(4.0128 .2492)" x="168.58" y="-4336.82"/><text x="466.91" y="-1073.74"><tspan x="466.91" y="-1073.74"/></text><text transform="scale(4.0128 .2492)" x="313.44" y="-4657.85"/><text x="-1365.89" y="340.98"><tspan x="-1365.89" y="340.98"/></text><text x="729.64" y="231.36"><tspan x="729.64" y="231.36"/></text><text transform="scale(4.0128 .2492)" x="378.91" y="579.26"/><text x="1310.91" y="151.36"><tspan x="1310.91" y="151.36"/></text><text transform="scale(4.0128 .2492)" x="523.76" y="258.22"/><text x="239.33" y="-29.9"><tspan x="239.33" y="-29.9"/></text><text transform="scale(4.0128 .2492)" x="256.72" y="-469.13"/><text x="1337.38" y="-246.37"><tspan x="1337.38" y="-246.37"/></text><text transform="scale(4.0128 .2492)" x="530.36" y="-1337.79"/><text x="1918.65" y="-326.37"><tspan x="1918.65" y="-326.37"/></text><text transform="scale(4.0128 .2492)" x="675.21" y="-1658.82"/><text x="1529.53" y="-798.77"><tspan x="1529.53" y="-798.77"/></text><text transform="scale(4.0128 .2492)" x="578.24" y="-3554.46"/><text x="2110.79" y="-878.78"><tspan x="2110.79" y="-878.78"/></text><text transform="scale(4.0128 .2492)" x="723.09" y="-3875.5"/><text x="277.99" y="535.94"><tspan x="277.99" y="535.94"/></text><text x="89.64" y="159.96"><tspan x="89.64" y="159.96"/></text><text transform="scale(4.0128 .2492)" x="219.42" y="292.73"/><text x="670.91" y="79.958"><tspan x="670.91" y="79.958"/></text><text transform="scale(4.0128 .2492)" x="364.27" y="-28.31"/><text x="-400.67" y="-101.3"><tspan x="-400.67" y="-101.3"/></text><text transform="scale(4.0128 .2492)" x="97.23" y="-755.65"/><text x="697.38" y="-317.77"><tspan x="697.38" y="-317.77"/></text><text transform="scale(4.0128 .2492)" x="370.87" y="-1624.32"/><text x="1278.65" y="-397.78"><tspan x="1278.65" y="-397.78"/></text><text transform="scale(4.0128 .2492)" x="515.72" y="-1945.35"/><text x="889.53" y="-870.18"><tspan x="889.53" y="-870.18"/></text><text transform="scale(4.0128 .2492)" x="418.75" y="-3840.99"/><text x="1470.8" y="-950.18"><tspan x="1470.8" y="-950.18"/></text><text transform="scale(4.0128 .2492)" x="563.6" y="-4162.02"/><text x="-362.01" y="464.54"><tspan x="-362.01" y="464.54"/></text><text x="3193.78" y="-582.92"><tspan x="3193.78" y="-582.92"/></text><text transform="scale(4.0128 .2492)" x="992.96" y="-2688.28"/><text x="3775.05" y="-662.92"><tspan x="3775.05" y="-662.92"/></text><text transform="scale(4.0128 .2492)" x="1137.8" y="-3009.3"/><text x="2703.47" y="-844.17"><tspan x="2703.47" y="-844.17"/></text><text transform="scale(4.0128 .2492)" x="870.78" y="-3736.66"/><text x="3801.52" y="-1060.65"><tspan x="3801.52" y="-1060.65"/></text><text transform="scale(4.0128 .2492)" x="1144.4" y="-4605.32"/><text x="4382.79" y="-1140.65"><tspan x="4382.79" y="-1140.65"/></text><text transform="scale(4.0128 .2492)" x="1289.25" y="-4926.34"/><text x="3993.67" y="-1613.05"><tspan x="3993.67" y="-1613.05"/></text><text transform="scale(4.0128 .2492)" x="1192.28" y="-6821.99"/><text x="4574.93" y="-1693.05"><tspan x="4574.93" y="-1693.05"/></text><text transform="scale(4.0128 .2492)" x="1337.13" y="-7143.02"/><text x="2742.13" y="-278.34"><tspan x="2742.13" y="-278.34"/></text><text x="-549.88" y="66.88"><tspan x="-549.88" y="66.88"/></text><text transform="scale(4.0128 .2492)" x="60.05" y="-80.78"/><text x="31.394" y="-13.12"><tspan x="31.394" y="-13.12"/></text><text transform="scale(4.0128 .2492)" x="204.9" y="-401.81"/><text x="-1040.19" y="-194.38"><tspan x="-1040.19" y="-194.38"/></text><text transform="scale(4.0128 .2492)" x="-62.14" y="-1129.16"/><text x="57.864" y="-410.85"><tspan x="57.864" y="-410.85"/></text><text transform="scale(4.0128 .2492)" x="211.5" y="-1997.82"/><text x="639.13" y="-490.86"><tspan x="639.13" y="-490.86"/></text><text transform="scale(4.0128 .2492)" x="356.35" y="-2318.86"/><text x="250.01" y="-963.26"><tspan x="250.01" y="-963.26"/></text><text transform="scale(4.0128 .2492)" x="259.38" y="-4214.5"/><text x="831.27" y="-1043.26"><tspan x="831.27" y="-1043.26"/></text><text transform="scale(4.0128 .2492)" x="404.23" y="-4535.53"/><text x="-1001.53" y="371.46"><tspan x="-1001.53" y="371.46"/></text><text x="-3225.36" y="352.5"><tspan x="-3225.36" y="352.5"/></text><text transform="scale(4.0128 .2492)" x="-486.04" y="851.62"/><text x="-2519.02" y="196.87"><tspan x="-2519.02" y="196.87"/></text><text transform="scale(4.0128 .2492)" x="-310.02" y="227.1"/><text x="-2485.65" y="188.75"><tspan x="-2485.65" y="188.75"/></text><text transform="scale(4.0128 .2492)" x="-301.7" y="194.5"/><text x="-1335.23" y="34.34"><tspan x="-1335.23" y="34.34"/></text><text transform="scale(4.0128 .2492)" x="-135.66" y="-211.36"/><text x="-753.97" y="-45.66"><tspan x="-753.97" y="-45.66"/></text><text transform="scale(4.0128 .2492)" x="9.191" y="-532.4"/><text x="-1825.55" y="-226.92"><tspan x="-1825.55" y="-226.92"/></text><text transform="scale(4.0128 .2492)" x="-257.85" y="-1259.73"/><text x="-727.5" y="-443.39"><tspan x="-727.5" y="-443.39"/></text><text transform="scale(4.0128 .2492)" x="15.791" y="-2128.4"/><text x="-146.23" y="-523.39"><tspan x="-146.23" y="-523.39"/></text><text transform="scale(4.0128 .2492)" x="160.63" y="-2449.43"/><text x="-535.35" y="-995.79"><tspan x="-535.35" y="-995.79"/></text><text transform="scale(4.0128 .2492)" x="63.67" y="-4345.06"/><text x="45.914" y="-1075.8"><tspan x="45.914" y="-1075.8"/></text><text transform="scale(4.0128 .2492)" x="208.51" y="-4666.1"/><text x="-1786.89" y="338.92"><tspan x="-1786.89" y="338.92"/></text><text x="-1385.68" y="-704.67"><tspan x="-1385.68" y="-704.67"/></text><text transform="scale(4.0128 .2492)" x="-148.23" y="-3176.85"/><text x="-804.41" y="-784.67"><tspan x="-804.41" y="-784.67"/></text><text transform="scale(4.0128 .2492)" x="-3.379" y="-3497.87"/><text x="-1875.99" y="-965.93"><tspan x="-1875.99" y="-965.93"/></text><text transform="scale(4.0128 .2492)" x="-270.42" y="-4225.23"/><text x="-777.94" y="-1182.4"><tspan x="-777.94" y="-1182.4"/></text><text transform="scale(4.0128 .2492)" x="3.221" y="-5093.88"/><text x="-196.68" y="-1262.41"><tspan x="-196.68" y="-1262.41"/></text><text transform="scale(4.0128 .2492)" x="148.06" y="-5414.92"/><text x="-585.8" y="-1734.81"><tspan x="-585.8" y="-1734.81"/></text><text transform="scale(4.0128 .2492)" x="51.1" y="-7310.55"/><text x="-4.526" y="-1814.81"><tspan x="-4.526" y="-1814.81"/></text><text transform="scale(4.0128 .2492)" x="195.94" y="-7631.57"/><text x="-1837.34" y="-400.09"><tspan x="-1837.34" y="-400.09"/></text><text x="1718.46" y="-1447.55"><tspan x="1718.46" y="-1447.55"/></text><text transform="scale(4.0128 .2492)" x="625.31" y="-6157.84"/><text x="2299.72" y="-1527.55"><tspan x="2299.72" y="-1527.55"/></text><text transform="scale(4.0128 .2492)" x="770.16" y="-6478.88"/><text x="1228.14" y="-1708.8"><tspan x="1228.14" y="-1708.8"/></text><text transform="scale(4.0128 .2492)" x="503.12" y="-7206.21"/><text x="2326.19" y="-1925.28"><tspan x="2326.19" y="-1925.28"/></text><text transform="scale(4.0128 .2492)" x="776.76" y="-8074.87"/><text x="2907.46" y="-2005.28"><tspan x="2907.46" y="-2005.28"/></text><text transform="scale(4.0128 .2492)" x="921.61" y="-8395.91"/><text x="2518.34" y="-2477.68"><tspan x="2518.34" y="-2477.68"/></text><text transform="scale(4.0128 .2492)" x="824.64" y="-10291.54"/><text x="3099.61" y="-2557.68"><tspan x="3099.61" y="-2557.68"/></text><text transform="scale(4.0128 .2492)" x="969.49" y="-10612.57"/><text x="1266.8" y="-1142.97"><tspan x="1266.8" y="-1142.97"/></text><text x="-3275.81" y="-388.89"><tspan x="-3275.81" y="-388.89"/></text><text transform="scale(4.0128 .2492)" x="-498.61" y="-2123.43"/><text x="-3275.81" y="-388.89"><tspan x="-3275.81" y="-388.89"/></text><text transform="scale(4.0128 .2492)" x="-498.61" y="-2123.43"/><text x="-3609.36" y="244.02"><tspan x="-3609.36" y="244.02"/></text><text transform="scale(4.0128 .2492)" x="-581.73" y="416.32"/><text x="-2903.02" y="88.39"><tspan x="-2903.02" y="88.39"/></text><text transform="scale(4.0128 .2492)" x="-405.71" y="-208.19"/><text x="-1160.48" y="549.52"><tspan x="-1160.48" y="549.52"/></text><text transform="scale(4.0128 .2492)" x="28.534" y="1642.23"/><text x="-454.14" y="393.89"><tspan x="-454.14" y="393.89"/></text><text transform="scale(4.0128 .2492)" x="204.55" y="1017.71"/><text x="-420.77" y="385.77"><tspan x="-420.77" y="385.77"/></text><text transform="scale(4.0128 .2492)" x="212.87" y="985.11"/><text x="729.64" y="231.36"><tspan x="729.64" y="231.36"/></text><text transform="scale(4.0128 .2492)" x="378.91" y="579.26"/><text x="1310.91" y="151.36"><tspan x="1310.91" y="151.36"/></text><text transform="scale(4.0128 .2492)" x="523.76" y="258.22"/><text x="239.33" y="-29.9"><tspan x="239.33" y="-29.9"/></text><text transform="scale(4.0128 .2492)" x="256.72" y="-469.13"/><text x="1337.38" y="-246.37"><tspan x="1337.38" y="-246.37"/></text><text transform="scale(4.0128 .2492)" x="530.36" y="-1337.79"/><text x="1918.65" y="-326.37"><tspan x="1918.65" y="-326.37"/></text><text transform="scale(4.0128 .2492)" x="675.21" y="-1658.82"/><text x="1529.53" y="-798.77"><tspan x="1529.53" y="-798.77"/></text><text transform="scale(4.0128 .2492)" x="578.24" y="-3554.46"/><text x="2110.79" y="-878.78"><tspan x="2110.79" y="-878.78"/></text><text transform="scale(4.0128 .2492)" x="723.09" y="-3875.5"/><text x="277.99" y="535.94"><tspan x="277.99" y="535.94"/></text><text x="679.2" y="-507.65"><tspan x="679.2" y="-507.65"/></text><text transform="scale(4.0128 .2492)" x="366.34" y="-2386.26"/><text x="1260.47" y="-587.65"><tspan x="1260.47" y="-587.65"/></text><text transform="scale(4.0128 .2492)" x="511.19" y="-2707.28"/><text x="188.89" y="-768.91"><tspan x="188.89" y="-768.91"/></text><text transform="scale(4.0128 .2492)" x="244.15" y="-3434.63"/><text x="1286.94" y="-985.38"><tspan x="1286.94" y="-985.38"/></text><text transform="scale(4.0128 .2492)" x="517.79" y="-4303.3"/><text x="1868.2" y="-1065.39"><tspan x="1868.2" y="-1065.39"/></text><text transform="scale(4.0128 .2492)" x="662.64" y="-4624.33"/><text x="1479.08" y="-1537.79"><tspan x="1479.08" y="-1537.79"/></text><text transform="scale(4.0128 .2492)" x="565.67" y="-6519.98"/><text x="2060.35" y="-1617.79"><tspan x="2060.35" y="-1617.79"/></text><text transform="scale(4.0128 .2492)" x="710.52" y="-6840.99"/><text x="227.54" y="-203.07"><tspan x="227.54" y="-203.07"/></text><text x="3783.34" y="-1250.53"><tspan x="3783.34" y="-1250.53"/></text><text transform="scale(4.0128 .2492)" x="1139.87" y="-5367.25"/><text x="4364.6" y="-1330.53"><tspan x="4364.6" y="-1330.53"/></text><text transform="scale(4.0128 .2492)" x="1284.72" y="-5688.29"/><text x="3293.02" y="-1511.78"><tspan x="3293.02" y="-1511.78"/></text><text transform="scale(4.0128 .2492)" x="1017.68" y="-6415.64"/><text x="4391.07" y="-1728.26"><tspan x="4391.07" y="-1728.26"/></text><text transform="scale(4.0128 .2492)" x="1291.32" y="-7284.29"/><text x="4972.34" y="-1808.26"><tspan x="4972.34" y="-1808.26"/></text><text transform="scale(4.0128 .2492)" x="1436.17" y="-7605.33"/><text x="4583.22" y="-2280.66"><tspan x="4583.22" y="-2280.66"/></text><text transform="scale(4.0128 .2492)" x="1339.2" y="-9500.97"/><text x="5164.49" y="-2360.66"><tspan x="5164.49" y="-2360.66"/></text><text transform="scale(4.0128 .2492)" x="1484.05" y="-9822"/><text x="3331.68" y="-945.95"><tspan x="3331.68" y="-945.95"/></text><text x="-1210.93" y="-191.87"><tspan x="-1210.93" y="-191.87"/></text><text transform="scale(4.0128 .2492)" x="15.963" y="-1332.82"/><text x="-1210.93" y="-191.87"><tspan x="-1210.93" y="-191.87"/></text><text transform="scale(4.0128 .2492)" x="15.963" y="-1332.82"/><text x="729.64" y="231.36"><tspan x="729.64" y="231.36"/></text><text transform="scale(4.0128 .2492)" x="378.91" y="579.26"/><text x="1310.91" y="151.36"><tspan x="1310.91" y="151.36"/></text><text transform="scale(4.0128 .2492)" x="523.76" y="258.22"/><text x="239.33" y="-29.9"><tspan x="239.33" y="-29.9"/></text><text transform="scale(4.0128 .2492)" x="256.72" y="-469.13"/><text x="1337.38" y="-246.37"><tspan x="1337.38" y="-246.37"/></text><text transform="scale(4.0128 .2492)" x="530.36" y="-1337.8"/><text x="1918.65" y="-326.37"><tspan x="1918.65" y="-326.37"/></text><text transform="scale(4.0128 .2492)" x="675.21" y="-1658.83"/><text x="1529.53" y="-798.77"><tspan x="1529.53" y="-798.77"/></text><text transform="scale(4.0128 .2492)" x="578.24" y="-3554.48"/><text x="2110.79" y="-878.78"><tspan x="2110.79" y="-878.78"/></text><text transform="scale(4.0128 .2492)" x="723.09" y="-3875.52"/><text x="277.99" y="535.94"><tspan x="277.99" y="535.94"/></text><text x="729.64" y="231.36"><tspan x="729.64" y="231.36"/></text><text transform="scale(4.0128 .2492)" x="378.91" y="579.26"/><text x="1310.91" y="151.36"><tspan x="1310.91" y="151.36"/></text><text transform="scale(4.0128 .2492)" x="523.76" y="258.22"/><text x="239.33" y="-29.9"><tspan x="239.33" y="-29.9"/></text><text transform="scale(4.0128 .2492)" x="256.72" y="-469.13"/><text x="1337.38" y="-246.37"><tspan x="1337.38" y="-246.37"/></text><text transform="scale(4.0128 .2492)" x="530.36" y="-1337.8"/><text x="1918.65" y="-326.37"><tspan x="1918.65" y="-326.37"/></text><text transform="scale(4.0128 .2492)" x="675.21" y="-1658.83"/><text x="1529.53" y="-798.77"><tspan x="1529.53" y="-798.77"/></text><text transform="scale(4.0128 .2492)" x="578.24" y="-3554.48"/><text x="2110.79" y="-878.78"><tspan x="2110.79" y="-878.78"/></text><text transform="scale(4.0128 .2492)" x="723.09" y="-3875.52"/><text x="277.99" y="535.94"><tspan x="277.99" y="535.94"/></text><text x="729.64" y="231.36"><tspan x="729.64" y="231.36"/></text><text transform="scale(4.0128 .2492)" x="378.91" y="579.26"/><text x="1310.91" y="151.36"><tspan x="1310.91" y="151.36"/></text><text transform="scale(4.0128 .2492)" x="523.76" y="258.22"/><text x="239.33" y="-29.9"><tspan x="239.33" y="-29.9"/></text><text transform="scale(4.0128 .2492)" x="256.72" y="-469.13"/><text x="1337.38" y="-246.37"><tspan x="1337.38" y="-246.37"/></text><text transform="scale(4.0128 .2492)" x="530.36" y="-1337.8"/><text x="1918.65" y="-326.37"><tspan x="1918.65" y="-326.37"/></text><text transform="scale(4.0128 .2492)" x="675.21" y="-1658.83"/><text x="1529.53" y="-798.77"><tspan x="1529.53" y="-798.77"/></text><text transform="scale(4.0128 .2492)" x="578.24" y="-3554.48"/><text x="2110.79" y="-878.78"><tspan x="2110.79" y="-878.78"/></text><text transform="scale(4.0128 .2492)" x="723.09" y="-3875.52"/><text x="277.99" y="535.94"><tspan x="277.99" y="535.94"/></text><text x="729.64" y="231.36"><tspan x="729.64" y="231.36"/></text><text transform="scale(4.0128 .2492)" x="378.91" y="579.26"/><text x="1310.91" y="151.36"><tspan x="1310.91" y="151.36"/></text><text transform="scale(4.0128 .2492)" x="523.76" y="258.22"/><text x="239.33" y="-29.9"><tspan x="239.33" y="-29.9"/></text><text transform="scale(4.0128 .2492)" x="256.72" y="-469.13"/><text x="1337.38" y="-246.37"><tspan x="1337.38" y="-246.37"/></text><text transform="scale(4.0128 .2492)" x="530.36" y="-1337.8"/><text x="1918.65" y="-326.37"><tspan x="1918.65" y="-326.37"/></text><text transform="scale(4.0128 .2492)" x="675.21" y="-1658.83"/><text x="1529.53" y="-798.77"><tspan x="1529.53" y="-798.77"/></text><text transform="scale(4.0128 .2492)" x="578.24" y="-3554.48"/><text x="2110.79" y="-878.78"><tspan x="2110.79" y="-878.78"/></text><text transform="scale(4.0128 .2492)" x="723.09" y="-3875.52"/><text x="277.99" y="535.94"><tspan x="277.99" y="535.94"/></text><text x="1611.91" y="53.22"><tspan x="1611.91" y="53.22"/></text><text transform="scale(4.0128 .2492)" x="598.77" y="-135.58"/><text x="2193.18" y="-26.78"><tspan x="2193.18" y="-26.78"/></text><text transform="scale(4.0128 .2492)" x="743.62" y="-456.62"/><text x="1121.6" y="-208.04"><tspan x="1121.6" y="-208.04"/></text><text transform="scale(4.0128 .2492)" x="476.58" y="-1183.97"/><text x="2219.65" y="-424.51"><tspan x="2219.65" y="-424.51"/></text><text transform="scale(4.0128 .2492)" x="750.22" y="-2052.64"/><text x="2800.92" y="-504.51"><tspan x="2800.92" y="-504.51"/></text><text transform="scale(4.0128 .2492)" x="895.07" y="-2373.67"/><text x="2411.8" y="-976.91"><tspan x="2411.8" y="-976.91"/></text><text transform="scale(4.0128 .2492)" x="798.1" y="-4269.32"/><text x="2993.06" y="-1056.92"><tspan x="2993.06" y="-1056.92"/></text><text transform="scale(4.0128 .2492)" x="942.95" y="-4590.36"/><text x="1160.26" y="357.8"><tspan x="1160.26" y="357.8"/></text><text x="729.64" y="231.36"><tspan x="729.64" y="231.36"/></text><text transform="scale(4.0128 .2492)" x="378.91" y="579.26"/><text x="1310.91" y="151.36"><tspan x="1310.91" y="151.36"/></text><text transform="scale(4.0128 .2492)" x="523.76" y="258.22"/><text x="239.33" y="-29.9"><tspan x="239.33" y="-29.9"/></text><text transform="scale(4.0128 .2492)" x="256.72" y="-469.13"/><text x="1337.38" y="-246.37"><tspan x="1337.38" y="-246.37"/></text><text transform="scale(4.0128 .2492)" x="530.36" y="-1337.8"/><text x="1918.65" y="-326.37"><tspan x="1918.65" y="-326.37"/></text><text transform="scale(4.0128 .2492)" x="675.21" y="-1658.83"/><text x="1529.53" y="-798.77"><tspan x="1529.53" y="-798.77"/></text><text transform="scale(4.0128 .2492)" x="578.24" y="-3554.48"/><text x="2110.79" y="-878.78"><tspan x="2110.79" y="-878.78"/></text><text transform="scale(4.0128 .2492)" x="723.09" y="-3875.52"/><text x="277.99" y="535.94"><tspan x="277.99" y="535.94"/></text><text x="729.64" y="231.36"><tspan x="729.64" y="231.36"/></text><text transform="scale(4.0128 .2492)" x="378.91" y="579.26"/><text x="1310.91" y="151.36"><tspan x="1310.91" y="151.36"/></text><text transform="scale(4.0128 .2492)" x="523.76" y="258.22"/><text x="239.33" y="-29.9"><tspan x="239.33" y="-29.9"/></text><text transform="scale(4.0128 .2492)" x="256.72" y="-469.13"/><text x="1337.38" y="-246.37"><tspan x="1337.38" y="-246.37"/></text><text transform="scale(4.0128 .2492)" x="530.36" y="-1337.8"/><text x="1918.65" y="-326.37"><tspan x="1918.65" y="-326.37"/></text><text transform="scale(4.0128 .2492)" x="675.21" y="-1658.83"/><text x="1529.53" y="-798.77"><tspan x="1529.53" y="-798.77"/></text><text transform="scale(4.0128 .2492)" x="578.24" y="-3554.48"/><text x="2110.79" y="-878.78"><tspan x="2110.79" y="-878.78"/></text><text transform="scale(4.0128 .2492)" x="723.09" y="-3875.52"/><text x="277.99" y="535.94"><tspan x="277.99" y="535.94"/></text><text x="729.64" y="231.36"><tspan x="729.64" y="231.36"/></text><text transform="scale(4.0128 .2492)" x="378.91" y="579.26"/><text x="1310.91" y="151.36"><tspan x="1310.91" y="151.36"/></text><text transform="scale(4.0128 .2492)" x="523.76" y="258.22"/><text x="239.33" y="-29.9"><tspan x="239.33" y="-29.9"/></text><text transform="scale(4.0128 .2492)" x="256.72" y="-469.13"/><text x="1337.38" y="-246.37"><tspan x="1337.38" y="-246.37"/></text><text transform="scale(4.0128 .2492)" x="530.36" y="-1337.8"/><text x="1918.65" y="-326.37"><tspan x="1918.65" y="-326.37"/></text><text transform="scale(4.0128 .2492)" x="675.21" y="-1658.83"/><text x="1529.53" y="-798.77"><tspan x="1529.53" y="-798.77"/></text><text transform="scale(4.0128 .2492)" x="578.24" y="-3554.48"/><text x="2110.79" y="-878.78"><tspan x="2110.79" y="-878.78"/></text><text transform="scale(4.0128 .2492)" x="723.09" y="-3875.52"/><text x="277.99" y="535.94"><tspan x="277.99" y="535.94"/></text><text x="729.64" y="231.36"><tspan x="729.64" y="231.36"/></text><text transform="scale(4.0128 .2492)" x="378.91" y="579.26"/><text x="1310.91" y="151.36"><tspan x="1310.91" y="151.36"/></text><text transform="scale(4.0128 .2492)" x="523.76" y="258.22"/><text x="239.33" y="-29.9"><tspan x="239.33" y="-29.9"/></text><text transform="scale(4.0128 .2492)" x="256.72" y="-469.13"/><text x="1337.38" y="-246.37"><tspan x="1337.38" y="-246.37"/></text><text transform="scale(4.0128 .2492)" x="530.36" y="-1337.79"/><text x="1918.65" y="-326.37"><tspan x="1918.65" y="-326.37"/></text><text transform="scale(4.0128 .2492)" x="675.21" y="-1658.82"/><text x="1529.53" y="-798.77"><tspan x="1529.53" y="-798.77"/></text><text transform="scale(4.0128 .2492)" x="578.24" y="-3554.46"/><text x="2110.79" y="-878.78"><tspan x="2110.79" y="-878.78"/></text><text transform="scale(4.0128 .2492)" x="723.09" y="-3875.5"/><text x="277.99" y="535.94"><tspan x="277.99" y="535.94"/></text><text x="729.64" y="231.36"><tspan x="729.64" y="231.36"/></text><text transform="scale(4.0128 .2492)" x="378.91" y="579.26"/><text x="1310.91" y="151.36"><tspan x="1310.91" y="151.36"/></text><text transform="scale(4.0128 .2492)" x="523.76" y="258.22"/><text x="239.33" y="-29.9"><tspan x="239.33" y="-29.9"/></text><text transform="scale(4.0128 .2492)" x="256.72" y="-469.13"/><text x="1337.38" y="-246.37"><tspan x="1337.38" y="-246.37"/></text><text transform="scale(4.0128 .2492)" x="530.36" y="-1337.8"/><text x="1918.65" y="-326.37"><tspan x="1918.65" y="-326.37"/></text><text transform="scale(4.0128 .2492)" x="675.21" y="-1658.83"/><text x="1529.53" y="-798.77"><tspan x="1529.53" y="-798.77"/></text><text transform="scale(4.0128 .2492)" x="578.24" y="-3554.48"/><text x="2110.79" y="-878.78"><tspan x="2110.79" y="-878.78"/></text><text transform="scale(4.0128 .2492)" x="723.09" y="-3875.52"/><text x="277.99" y="535.94"><tspan x="277.99" y="535.94"/></text><text x="729.64" y="231.36"><tspan x="729.64" y="231.36"/></text><text transform="scale(4.0128 .2492)" x="378.91" y="579.26"/><text x="1310.91" y="151.36"><tspan x="1310.91" y="151.36"/></text><text transform="scale(4.0128 .2492)" x="523.76" y="258.22"/><text x="239.33" y="-29.9"><tspan x="239.33" y="-29.9"/></text><text transform="scale(4.0128 .2492)" x="256.72" y="-469.13"/><text x="1337.38" y="-246.37"><tspan x="1337.38" y="-246.37"/></text><text transform="scale(4.0128 .2492)" x="530.36" y="-1337.8"/><text x="1918.65" y="-326.37"><tspan x="1918.65" y="-326.37"/></text><text transform="scale(4.0128 .2492)" x="675.21" y="-1658.83"/><text x="1529.53" y="-798.77"><tspan x="1529.53" y="-798.77"/></text><text transform="scale(4.0128 .2492)" x="578.24" y="-3554.48"/><text x="2110.79" y="-878.78"><tspan x="2110.79" y="-878.78"/></text><text transform="scale(4.0128 .2492)" x="723.09" y="-3875.52"/><text x="277.99" y="535.94"><tspan x="277.99" y="535.94"/></text><text x="729.64" y="231.36"><tspan x="729.64" y="231.36"/></text><text transform="scale(4.0128 .2492)" x="378.91" y="579.26"/><text x="1310.91" y="151.36"><tspan x="1310.91" y="151.36"/></text><text transform="scale(4.0128 .2492)" x="523.76" y="258.22"/><text x="239.33" y="-29.9"><tspan x="239.33" y="-29.9"/></text><text transform="scale(4.0128 .2492)" x="256.72" y="-469.13"/><text x="1337.38" y="-246.37"><tspan x="1337.38" y="-246.37"/></text><text transform="scale(4.0128 .2492)" x="530.36" y="-1337.8"/><text x="1918.65" y="-326.37"><tspan x="1918.65" y="-326.37"/></text><text transform="scale(4.0128 .2492)" x="675.21" y="-1658.83"/><text x="1529.53" y="-798.77"><tspan x="1529.53" y="-798.77"/></text><text transform="scale(4.0128 .2492)" x="578.24" y="-3554.48"/><text x="2110.79" y="-878.78"><tspan x="2110.79" y="-878.78"/></text><text transform="scale(4.0128 .2492)" x="723.09" y="-3875.52"/><text x="277.99" y="535.94"><tspan x="277.99" y="535.94"/></text><text x="729.64" y="231.36"><tspan x="729.64" y="231.36"/></text><text transform="scale(4.0128 .2492)" x="378.91" y="579.26"/><text x="1310.91" y="151.36"><tspan x="1310.91" y="151.36"/></text><text transform="scale(4.0128 .2492)" x="523.76" y="258.22"/><text x="239.33" y="-29.9"><tspan x="239.33" y="-29.9"/></text><text transform="scale(4.0128 .2492)" x="256.72" y="-469.13"/><text x="1337.38" y="-246.37"><tspan x="1337.38" y="-246.37"/></text><text transform="scale(4.0128 .2492)" x="530.36" y="-1337.8"/><text x="1918.65" y="-326.37"><tspan x="1918.65" y="-326.37"/></text><text transform="scale(4.0128 .2492)" x="675.21" y="-1658.83"/><text x="1529.53" y="-798.77"><tspan x="1529.53" y="-798.77"/></text><text transform="scale(4.0128 .2492)" x="578.24" y="-3554.48"/><text x="2110.79" y="-878.78"><tspan x="2110.79" y="-878.78"/></text><text transform="scale(4.0128 .2492)" x="723.09" y="-3875.52"/><text x="277.99" y="535.94"><tspan x="277.99" y="535.94"/></text><text x="1611.91" y="53.22"><tspan x="1611.91" y="53.22"/></text><text transform="scale(4.0128 .2492)" x="598.77" y="-135.58"/><text x="2193.18" y="-26.78"><tspan x="2193.18" y="-26.78"/></text><text transform="scale(4.0128 .2492)" x="743.62" y="-456.62"/><text x="1121.6" y="-208.04"><tspan x="1121.6" y="-208.04"/></text><text transform="scale(4.0128 .2492)" x="476.58" y="-1183.97"/><text x="2219.65" y="-424.51"><tspan x="2219.65" y="-424.51"/></text><text transform="scale(4.0128 .2492)" x="750.22" y="-2052.64"/><text x="2800.92" y="-504.51"><tspan x="2800.92" y="-504.51"/></text><text transform="scale(4.0128 .2492)" x="895.07" y="-2373.67"/><text x="2411.8" y="-976.91"><tspan x="2411.8" y="-976.91"/></text><text transform="scale(4.0128 .2492)" x="798.1" y="-4269.32"/><text x="2993.06" y="-1056.92"><tspan x="2993.06" y="-1056.92"/></text><text transform="scale(4.0128 .2492)" x="942.95" y="-4590.36"/><text x="1160.26" y="357.8"><tspan x="1160.26" y="357.8"/></text><text x="729.64" y="231.36"><tspan x="729.64" y="231.36"/></text><text transform="scale(4.0128 .2492)" x="378.91" y="579.26"/><text x="1310.91" y="151.36"><tspan x="1310.91" y="151.36"/></text><text transform="scale(4.0128 .2492)" x="523.76" y="258.22"/><text x="239.33" y="-29.9"><tspan x="239.33" y="-29.9"/></text><text transform="scale(4.0128 .2492)" x="256.72" y="-469.13"/><text x="1337.38" y="-246.37"><tspan x="1337.38" y="-246.37"/></text><text transform="scale(4.0128 .2492)" x="530.36" y="-1337.8"/><text x="1918.65" y="-326.37"><tspan x="1918.65" y="-326.37"/></text><text transform="scale(4.0128 .2492)" x="675.21" y="-1658.83"/><text x="1529.53" y="-798.77"><tspan x="1529.53" y="-798.77"/></text><text transform="scale(4.0128 .2492)" x="578.24" y="-3554.48"/><text x="2110.79" y="-878.78"><tspan x="2110.79" y="-878.78"/></text><text transform="scale(4.0128 .2492)" x="723.09" y="-3875.52"/><text x="277.99" y="535.94"><tspan x="277.99" y="535.94"/></text><g fill-rule="evenodd"><path d="m471.95 253.05c0 120.9-98.01 218.91-218.91 218.91s-218.91-98.01-218.91-218.91 98.01-218.91 218.91-218.91 218.91 98.01 218.91 218.91" fill="#7f45b0"/><path d="m256 1c-140.83 0-255 114.17-255 255s114.17 255 255 255 255-114.17 255-255-114.17-255-255-255m8.827 44.931c120.9 0 218.9 98 218.9 218.9s-98 218.9-218.9 218.9-218.93-98-218.93-218.9 98.03-218.9 218.93-218.9" fill-opacity=".067"/><g fill-opacity=".129"><path d="m256 4.43c-138.94 0-251.57 112.63-251.57 251.57s112.63 251.57 251.57 251.57 251.57-112.63 251.57-251.57-112.63-251.57-251.57-251.57m5.885 38.556c120.9 0 218.9 98 218.9 218.9s-98 218.9-218.9 218.9-218.93-98-218.93-218.9 98.03-218.9 218.93-218.9"/><path d="m256 8.36c-136.77 0-247.64 110.87-247.64 247.64s110.87 247.64 247.64 247.64 247.64-110.87 247.64-247.64-110.87-247.64-247.64-247.64m2.942 31.691c120.9 0 218.9 98 218.9 218.9s-98 218.9-218.9 218.9-218.93-98-218.93-218.9 98.03-218.9 218.93-218.9"/></g><path d="m253.04 7.86c-135.42 0-245.19 109.78-245.19 245.19 0 135.42 109.78 245.19 245.19 245.19 135.42 0 245.19-109.78 245.19-245.19 0-135.42-109.78-245.19-245.19-245.19m0 26.297c120.9 0 218.9 98 218.9 218.9s-98 218.9-218.9 218.9-218.93-98-218.93-218.9 98.03-218.9 218.93-218.9z" fill="#fff" stroke="#000" stroke-opacity=".31" stroke-width="4.904"/></g><text x="729.64" y="231.36"><tspan x="729.64" y="231.36"/></text><text transform="scale(4.0128 .2492)" x="378.91" y="579.26"/><text x="1310.91" y="151.36"><tspan x="1310.91" y="151.36"/></text><text transform="scale(4.0128 .2492)" x="523.76" y="258.22"/><text x="239.33" y="-29.9"><tspan x="239.33" y="-29.9"/></text><text transform="scale(4.0128 .2492)" x="256.72" y="-469.13"/><text x="1337.38" y="-246.37"><tspan x="1337.38" y="-246.37"/></text><text transform="scale(4.0128 .2492)" x="530.36" y="-1337.8"/><text x="1918.65" y="-326.37"><tspan x="1918.65" y="-326.37"/></text><text transform="scale(4.0128 .2492)" x="675.21" y="-1658.83"/><text x="1529.53" y="-798.77"><tspan x="1529.53" y="-798.77"/></text><text transform="scale(4.0128 .2492)" x="578.24" y="-3554.48"/><text x="2110.79" y="-878.78"><tspan x="2110.79" y="-878.78"/></text><text transform="scale(4.0128 .2492)" x="723.09" y="-3875.52"/><text x="277.99" y="535.94"><tspan x="277.99" y="535.94"/></text><g fill-rule="evenodd"><path d="m227.57 174.66-11.986 58.5-13.76-13.76c-6.602-6.602-16.757-10.425-30.467-11.252h-61.15l-26.443 129.18 131.34 131.34c12.325 2.154 25 3.285 37.943 3.285 114.67 0 208.74-88.18 218.12-200.42l-52.12-52.12c-6.608-6.608-16.772-10.435-30.488-11.262h-61.15l-4.652 22.732-12.977-12.977c-3.533-3.533-8.682-6.284-15.539-7.986l-35.26-35.26h-31.406" opacity=".25"/><path d="m227.57 174.66-26.468 129.18h31.406l14.884-71.78h24.807c11.571 0 11.552 4.78 9.899 12.754l-11.561 59.02h33.07l11.561-65.39c3.306-15.948-6.62-28.712-33.07-30.31h-29.745l6.623-33.489h-31.406m-117.36 33.489-26.445 129.18h31.406l6.6-33.489h29.745c28.1 1.595 59.51-20.745 59.51-59.02 0-22.328-13.22-35.08-39.667-36.672h-61.15m217.2 0-26.445 129.18h31.406l6.599-33.489h29.768c28.1 1.595 59.51-20.745 59.51-59.02 0-22.328-13.243-35.08-39.691-36.672h-61.15m-190.75 23.917h21.484c11.571 0 19.845 4.776 19.845 14.346-1.653 27.11-14.891 31.918-29.768 33.513h-19.822l8.261-47.858m217.2 0h21.484c11.571 0 19.845 4.776 19.845 14.346-1.653 27.11-14.891 31.918-29.768 33.513h-19.822l8.261-47.858" fill="#fff"/></g></svg>